<svg width="132" height="30" viewBox="0 0 132 30" fill="none" xmlns="http://www.w3.org/2000/svg">
<path d="M45.7954 6.85563V17.2462C45.7954 19.584 45.172 21.3418 43.9252 22.5194C42.6783 23.6796 40.8599 24.2598 38.4701 24.2598C36.0803 24.2598 34.262 23.6796 33.0151 22.5194C31.7682 21.3418 31.1448 19.584 31.1448 17.2462V6.85563H34.7295V17.0903C34.7295 18.5277 35.0326 19.5927 35.6387 20.2854C36.2621 20.9781 37.2059 21.3244 38.4701 21.3244C39.7343 21.3244 40.6695 20.9781 41.2756 20.2854C41.8817 19.5927 42.1847 18.5277 42.1847 17.0903V6.85563H45.7954ZM49.4849 24V11.0118H52.68L52.8878 14.9083L52.4462 14.4927C52.654 13.6441 52.983 12.9427 53.4333 12.3886C53.8835 11.8344 54.4291 11.4275 55.0698 11.1677C55.7279 10.8906 56.4465 10.7521 57.2258 10.7521C58.1263 10.7521 58.923 10.9253 59.6157 11.2716C60.3257 11.618 60.8798 12.1461 61.2781 12.8562C61.6938 13.5489 61.9016 14.4234 61.9016 15.4798V24H58.3428V16.4928C58.3428 15.3845 58.1263 14.6226 57.6934 14.2069C57.2605 13.774 56.6977 13.5575 56.0049 13.5575C55.5201 13.5575 55.0438 13.6787 54.5763 13.9212C54.126 14.1463 53.7537 14.5186 53.4593 15.0382C53.1822 15.5577 53.0436 16.2504 53.0436 17.1163V24H49.4849ZM67.3603 9.14155C66.6156 9.14155 66.0614 8.98569 65.6978 8.67397C65.3341 8.34494 65.1523 7.86871 65.1523 7.24528C65.1523 6.60453 65.3341 6.1283 65.6978 5.81658C66.0614 5.48755 66.6156 5.32303 67.3603 5.32303C68.1049 5.32303 68.6591 5.48755 69.0227 5.81658C69.3864 6.1283 69.5682 6.60453 69.5682 7.24528C69.5682 7.86871 69.3864 8.34494 69.0227 8.67397C68.6591 8.98569 68.1049 9.14155 67.3603 9.14155ZM69.1266 11.0118V24H65.5679V11.0118H69.1266Z" fill="#003E97"/>
<path d="M45.7954 6.85563V17.2462C45.7954 19.584 45.172 21.3418 43.9252 22.5194C42.6783 23.6796 40.8599 24.2598 38.4701 24.2598C36.0803 24.2598 34.262 23.6796 33.0151 22.5194C31.7682 21.3418 31.1448 19.584 31.1448 17.2462V6.85563H34.7295V17.0903C34.7295 18.5277 35.0326 19.5927 35.6387 20.2854C36.2621 20.9781 37.2059 21.3244 38.4701 21.3244C39.7343 21.3244 40.6695 20.9781 41.2756 20.2854C41.8817 19.5927 42.1847 18.5277 42.1847 17.0903V6.85563H45.7954ZM49.4849 24V11.0118H52.68L52.8878 14.9083L52.4462 14.4927C52.654 13.6441 52.983 12.9427 53.4333 12.3886C53.8835 11.8344 54.4291 11.4275 55.0698 11.1677C55.7279 10.8906 56.4465 10.7521 57.2258 10.7521C58.1263 10.7521 58.923 10.9253 59.6157 11.2716C60.3257 11.618 60.8798 12.1461 61.2781 12.8562C61.6938 13.5489 61.9016 14.4234 61.9016 15.4798V24H58.3428V16.4928C58.3428 15.3845 58.1263 14.6226 57.6934 14.2069C57.2605 13.774 56.6977 13.5575 56.0049 13.5575C55.5201 13.5575 55.0438 13.6787 54.5763 13.9212C54.126 14.1463 53.7537 14.5186 53.4593 15.0382C53.1822 15.5577 53.0436 16.2504 53.0436 17.1163V24H49.4849ZM67.3603 9.14155C66.6156 9.14155 66.0614 8.98569 65.6978 8.67397C65.3341 8.34494 65.1523 7.86871 65.1523 7.24528C65.1523 6.60453 65.3341 6.1283 65.6978 5.81658C66.0614 5.48755 66.6156 5.32303 67.3603 5.32303C68.1049 5.32303 68.6591 5.48755 69.0227 5.81658C69.3864 6.1283 69.5682 6.60453 69.5682 7.24528C69.5682 7.86871 69.3864 8.34494 69.0227 8.67397C68.6591 8.98569 68.1049 9.14155 67.3603 9.14155ZM69.1266 11.0118V24H65.5679V11.0118H69.1266Z" fill="#003E97"/>
<path d="M88.8422 19.2723C88.5132 20.3806 87.9937 21.3071 87.2836 22.0518C86.5736 22.7964 85.7337 23.3506 84.7639 23.7143C83.7942 24.0779 82.7291 24.2598 81.5689 24.2598C79.8717 24.2598 78.3997 23.9048 77.1529 23.1947C75.9233 22.4847 74.9709 21.4716 74.2955 20.1555C73.6374 18.8394 73.3084 17.2635 73.3084 15.4278C73.3084 13.5922 73.6374 12.0163 74.2955 10.7001C74.9709 9.38399 75.9233 8.37092 77.1529 7.6609C78.3997 6.95088 79.8544 6.59587 81.5169 6.59587C82.6945 6.59587 83.7595 6.76039 84.712 7.08942C85.6645 7.40114 86.4697 7.88603 87.1278 8.54409C87.8032 9.20216 88.2967 10.0334 88.6084 11.0378L85.3614 12.4146C85.067 11.3755 84.6167 10.6395 84.0106 10.2066C83.4045 9.75632 82.6252 9.53119 81.6728 9.53119C80.7376 9.53119 79.915 9.75632 79.205 10.2066C78.5123 10.6568 77.9755 11.3236 77.5945 12.2068C77.2135 13.0726 77.023 14.1463 77.023 15.4278C77.023 16.692 77.1962 17.7657 77.5425 18.6489C77.9062 19.5321 78.4344 20.1988 79.1271 20.6491C79.8198 21.0993 80.6683 21.3244 81.6728 21.3244C82.6079 21.3244 83.4132 21.0733 84.0886 20.5711C84.7813 20.0689 85.2661 19.3069 85.5432 18.2852L88.8422 19.2723ZM97.4564 10.7521C98.7725 10.7521 99.9242 11.0205 100.911 11.5573C101.916 12.0942 102.695 12.8648 103.249 13.8692C103.821 14.8737 104.106 16.0859 104.106 17.5059C104.106 18.9086 103.821 20.1209 103.249 21.1426C102.695 22.147 101.916 22.9177 100.911 23.4545C99.9242 23.9913 98.7725 24.2598 97.4564 24.2598C96.1576 24.2598 95.006 23.9913 94.0016 23.4545C92.9971 22.9177 92.2092 22.147 91.6377 21.1426C91.0836 20.1209 90.8065 18.9086 90.8065 17.5059C90.8065 16.0859 91.0836 14.8737 91.6377 13.8692C92.2092 12.8648 92.9971 12.0942 94.0016 11.5573C95.006 11.0205 96.1576 10.7521 97.4564 10.7521ZM97.4564 13.4017C96.7983 13.4017 96.2355 13.5575 95.768 13.8692C95.3177 14.1636 94.9713 14.6139 94.7289 15.22C94.4865 15.8261 94.3652 16.5881 94.3652 17.5059C94.3652 18.4238 94.4865 19.1857 94.7289 19.7918C94.9713 20.398 95.3177 20.8569 95.768 21.1686C96.2355 21.463 96.7983 21.6102 97.4564 21.6102C98.0972 21.6102 98.6427 21.463 99.0929 21.1686C99.5605 20.8569 99.9155 20.398 100.158 19.7918C100.4 19.1857 100.522 18.4238 100.522 17.5059C100.522 16.5881 100.4 15.8261 100.158 15.22C99.9155 14.6139 99.5605 14.1636 99.0929 13.8692C98.6427 13.5575 98.0972 13.4017 97.4564 13.4017ZM107.084 24V11.0118H110.175L110.409 13.5575C110.755 12.657 111.258 11.9643 111.916 11.4794C112.591 10.9945 113.431 10.7521 114.435 10.7521C114.73 10.7521 114.998 10.7781 115.241 10.83C115.483 10.882 115.682 10.9512 115.838 11.0378L115.422 14.0251C115.249 13.9558 115.033 13.9039 114.773 13.8692C114.531 13.8346 114.21 13.8173 113.812 13.8173C113.292 13.8173 112.79 13.9472 112.305 14.2069C111.82 14.4494 111.422 14.8304 111.11 15.3499C110.799 15.8521 110.643 16.4928 110.643 17.2721V24H107.084ZM123.816 24.2598C122.448 24.2598 121.253 23.9913 120.231 23.4545C119.227 22.9177 118.447 22.147 117.893 21.1426C117.339 20.1382 117.062 18.926 117.062 17.5059C117.062 16.0859 117.339 14.8737 117.893 13.8692C118.447 12.8648 119.218 12.0942 120.205 11.5573C121.209 11.0205 122.352 10.7521 123.634 10.7521C124.95 10.7521 126.067 11.0205 126.985 11.5573C127.903 12.0769 128.604 12.7955 129.089 13.7134C129.574 14.6139 129.816 15.6443 129.816 16.8046C129.816 17.1509 129.808 17.4799 129.79 17.7917C129.773 18.1034 129.747 18.3805 129.712 18.6229H119.348V16.1552H128.154L126.439 16.7786C126.439 15.6876 126.188 14.8477 125.686 14.2589C125.201 13.6701 124.508 13.3757 123.608 13.3757C122.95 13.3757 122.378 13.5315 121.893 13.8433C121.426 14.155 121.071 14.6226 120.828 15.246C120.586 15.8521 120.465 16.6227 120.465 17.5579C120.465 18.4757 120.595 19.2377 120.854 19.8438C121.131 20.4326 121.512 20.8742 121.997 21.1686C122.5 21.463 123.097 21.6102 123.79 21.6102C124.552 21.6102 125.166 21.463 125.634 21.1686C126.102 20.8742 126.465 20.4672 126.725 19.9477L129.556 21.0387C129.279 21.7141 128.855 22.2942 128.284 22.7791C127.729 23.264 127.063 23.6363 126.283 23.8961C125.521 24.1385 124.699 24.2598 123.816 24.2598Z" fill="#3699FF"/>
<path d="M3 21.0179V9.6577L13 4L23 9.6577V21.0179L13 26.7504L3 21.0179Z" stroke="url(#paint0_linear_26_1329)" stroke-width="4.4843"/>
<defs>
<linearGradient id="paint0_linear_26_1329" x1="15.8907" y1="28.0018" x2="5.07265" y2="-19.3276" gradientUnits="userSpaceOnUse">
<stop stop-color="#3468B2"/>
<stop offset="0.4635" stop-color="#009EF7"/>
<stop offset="1" stop-color="#009EF7"/>
</linearGradient>
</defs>
</svg>
