<svg width="252" height="71" viewBox="0 0 252 71" fill="none" xmlns="http://www.w3.org/2000/svg">
<path d="M59.2371 57.5827C59.0931 57.8394 58.8489 58.1774 58.5609 58.5781C58.2292 59.0288 57.647 59.7299 56.5452 60.7566C55.1178 62.0713 53.8658 62.9352 53.5152 63.1793C51.8813 64.2999 50.5354 64.9572 49.6527 65.3766C49.4774 65.4518 47.1674 66.5598 44.6821 67.2797C38.6911 69.0138 32.4747 68.3565 31.9614 68.2876C22.859 67.2484 16.7804 62.6472 15.4532 61.608C13.9946 60.4561 8.24145 55.7234 5.08631 47.2158C3.35224 42.5707 3.08305 38.6268 3.01418 36.78C2.92028 33.6437 3.09557 24.0906 9.93797 15.4015C9.93797 15.4015 18.7085 4.26456 32.7001 3.11268C34.1086 3 35.755 3 35.755 3C36.5751 3 37.1824 3 38.0025 3.0626C38.5596 3.11268 39.4924 3.20659 40.5191 3.46325C40.8884 3.54464 41.2891 3.6761 42.0403 3.89521C42.1217 3.91399 42.0152 3.88895 42.5536 4.05797C42.7477 4.12058 42.8291 4.1644 43.0482 4.23326C43.2109 4.29586 43.4175 4.37724 43.6429 4.50871H43.4488C39.4736 4.66521 36.3185 5.59798 34.5218 6.2553C34.4905 6.26782 34.4529 6.28034 34.4467 6.28661C22.5022 10.7063 13.2747 20.7226 13.2747 33.8002C13.2747 49.6009 26.3522 62.4218 42.4722 62.4218C48.0188 62.4218 53.0395 60.6377 57.6157 58.2713L58.1227 58.0585C58.6236 57.8832 58.6924 57.8268 59.2371 57.5827Z" fill="#5496D7"/>
<path d="M28.3242 34.5389V47.4224L23.8669 42.6459L20.1483 47.4224V34.5389H28.3242Z" fill="#58B241"/>
<path d="M41.9338 31.1083V44.4738L37.4828 39.522L33.7643 44.4738V31.1083H41.9338Z" fill="#58B241"/>
<path d="M55.5498 25.8435V39.2403L51.0926 34.276L47.374 39.2403V25.8435H55.5498Z" fill="#58B241"/>
<path d="M28.3242 48.0985V57.6828L26.4962 56.5247C24.0735 54.8783 21.9262 52.8437 20.1483 50.5525V48.0985L23.6916 43.9292H23.7041L23.8168 43.804H24.0923L24.2363 43.9292L28.3242 48.0985Z" fill="#5496D7"/>
<path d="M41.9276 45.1311V61.5266C41.9276 61.5266 35.9366 61.1572 33.7518 60.0554V45.1311L37.3138 40.8241H37.3263L37.4265 40.6926H37.7145L37.8397 40.8241L41.9276 45.1311Z" fill="#5496D7"/>
<path d="M55.5498 39.8914V58.4842C55.3119 58.6094 55.0678 58.7221 54.8299 58.8347C50.8359 60.7879 47.374 61.1447 47.374 61.1447V39.8914L50.936 35.5781H50.9486L51.0487 35.4529H51.3367L51.4619 35.5781L55.5498 39.8914Z" fill="#5496D7"/>
<path d="M29.6277 46.125L29.9819 46.0782L29.81 45.8959L29.6277 46.125Z" fill="#58B241"/>
<path d="M29.7683 47.9427H30.0027L30.1173 48.0573H29.6693L29.7683 47.9427Z" fill="#58B241"/>
<path d="M71.2943 25.5613H70.7943V26.0613V46.6298C70.7943 52.1012 72.1568 55.9492 74.4996 58.4304C76.8461 60.9157 80.1034 61.9531 83.7275 61.9531C87.5933 61.9531 91.0333 60.8389 93.5044 58.2929C95.9743 55.7481 97.4063 51.8452 97.4063 46.4105V26.0613V25.5613H96.9063H92.411H91.911V26.0613V46.7175C91.911 50.4805 91.0849 53.1188 89.7074 54.8081C88.343 56.4813 86.3823 57.2911 83.9468 57.2911C81.7268 57.2911 79.8407 56.5136 78.4974 54.851C77.1421 53.1735 76.2896 50.5329 76.2896 46.7175V26.0613V25.5613H75.7896H71.2943Z" fill="#5496D7" stroke="#5496D7"/>
<path d="M105.061 60.883V61.383H105.561H110.056H110.556V60.883V45.8404C110.556 45.1812 110.697 44.4229 110.842 43.8782C111.624 41.5084 113.779 39.5865 116.503 39.5865C118.476 39.5865 119.763 40.3529 120.579 41.5547C121.415 42.7866 121.792 44.5304 121.792 46.5201V60.883V61.383H122.292H126.787H127.287V60.883V45.9939C127.287 41.5961 125.905 38.7899 124.01 37.089C122.128 35.3999 119.806 34.8588 118.016 34.8588C114.34 34.8588 111.547 36.6076 110.009 38.6549L109.831 35.8967L109.801 35.4289H109.333H105.364H104.842L104.864 35.9502C104.876 36.2304 104.888 36.5107 104.901 36.7924C104.979 38.5878 105.061 40.4416 105.061 42.7047V60.883Z" fill="#5496D7" stroke="#5496D7"/>
<path d="M139.731 61.3831H140.231V60.8831V35.929V35.429H139.731H135.236H134.736V35.929V60.8831V61.3831H135.236H139.731ZM137.516 25.5176C135.514 25.5176 134.165 27.0506 134.165 28.8463C134.165 30.6424 135.45 32.1969 137.406 32.1969C138.431 32.1969 139.288 31.8251 139.888 31.2023C140.485 30.5829 140.801 29.7423 140.801 28.8463C140.801 26.9851 139.452 25.5176 137.516 25.5176Z" fill="#5496D7" stroke="#5496D7"/>
<path d="M171.949 56.5376L171.804 55.9392L171.248 56.2039C169.488 57.042 166.824 57.6026 164.073 57.6026C159.974 57.6026 156.788 56.2822 154.625 53.9753C152.457 51.664 151.263 48.3059 151.263 44.1345C151.263 39.6601 152.575 36.2054 154.833 33.8717C157.09 31.5395 160.343 30.2716 164.336 30.2716C167.162 30.2716 169.519 30.8932 171.088 31.6673L171.613 31.9261L171.787 31.3675L172.927 27.7055L173.051 27.3058L172.68 27.113C171.415 26.457 168.549 25.5 164.183 25.5C158.672 25.5 153.995 27.3782 150.694 30.6905C147.393 34.0028 145.504 38.7129 145.504 44.3099C145.504 50.1217 147.374 54.6617 150.546 57.7483C153.714 60.8321 158.135 62.4181 163.152 62.4181C167.433 62.4181 170.873 61.5775 172.566 60.7195L172.919 60.5405L172.826 60.1557L171.949 56.5376Z" fill="#58B241" stroke="#58B241"/>
<path d="M188.901 35.3239C185.317 35.3239 182.071 36.596 179.72 38.9666C177.368 41.3387 175.946 44.7767 175.946 49.0464C175.946 53.1394 177.301 56.488 179.566 58.8159C181.83 61.1434 184.973 62.4182 188.484 62.4182C191.585 62.4182 194.814 61.3739 197.273 59.1121C199.742 56.842 201.396 53.381 201.396 48.6298C201.396 44.7301 200.155 41.4002 197.953 39.0406C195.748 36.6779 192.613 35.3239 188.901 35.3239ZM188.748 39.7446C191.262 39.7446 193.001 40.9638 194.131 42.6998C195.275 44.4554 195.791 46.7389 195.791 48.7833C195.791 54.3291 192.641 58.0632 188.704 58.0632C184.635 58.0632 181.595 54.2634 181.595 48.9587C181.595 46.6509 182.16 44.3282 183.336 42.5985C184.5 40.8879 186.265 39.7446 188.748 39.7446Z" fill="#58B241" stroke="#58B241"/>
<path d="M207.131 61.3481V61.8481H207.631H212.17H212.67V61.3481V48.0158C212.67 47.303 212.714 46.5851 212.852 46.032L212.857 46.0126L212.86 45.9929C213.401 42.7487 215.522 40.6217 218.419 40.6217C219.045 40.6217 219.477 40.6235 219.883 40.7006L220.476 40.8137V40.2095V35.9335V35.548L220.103 35.45C219.624 35.3238 219.195 35.3238 218.751 35.3239L218.726 35.3239C215.982 35.3239 213.511 36.9151 212.043 39.4743L211.946 36.3784L211.931 35.894H211.446H207.411H206.877L206.912 36.4269C207.065 38.7371 207.131 41.2034 207.131 44.2004V61.3481Z" fill="#58B241" stroke="#58B241"/>
<path d="M231.512 55.949C230.168 54.7424 229.241 52.8895 229.093 50.2262H246.095H246.501L246.584 49.8282C246.705 49.2502 246.748 48.5507 246.748 47.5553C246.748 45.1917 246.21 42.1529 244.591 39.6882C242.953 37.195 240.228 35.3239 235.964 35.3239C232.177 35.3239 229.093 36.8632 226.963 39.4001C224.841 41.9289 223.689 45.4207 223.689 49.3096C223.689 53.1625 224.884 56.447 227.108 58.7718C229.335 61.0994 232.549 62.4182 236.49 62.4182C240.534 62.4182 243.411 61.5243 245.073 60.7731L245.457 60.5994L245.351 60.1915L244.517 56.99L244.375 56.4436L243.85 56.6509C242.235 57.2884 240.302 57.8439 237.104 57.8439C234.923 57.8439 232.949 57.2382 231.512 55.949ZM241.357 45.9151H229.215C229.446 44.5459 229.988 43.06 230.909 41.8762C231.945 40.5461 233.462 39.5911 235.613 39.5911C237.99 39.5911 239.406 40.622 240.247 41.9585C241.006 43.1657 241.311 44.6507 241.357 45.9151Z" fill="#58B241" stroke="#58B241"/>
</svg>
