<svg width="190" height="199" viewBox="0 0 190 199" fill="none" xmlns="http://www.w3.org/2000/svg">
<g clip-path="url(#clip0_761_2613)">
<mask id="mask0_761_2613" style="mask-type:luminance" maskUnits="userSpaceOnUse" x="0" y="-1" width="197" height="198">
<path d="M196.197 -0.000340462H0.00161266V196.195H196.197V-0.000340462Z" fill="white"/>
</mask>
<g mask="url(#mask0_761_2613)">
<path d="M5.16364 134.238C5.16364 139.716 7.33949 144.969 11.2125 148.842C15.0856 152.715 20.3385 154.891 25.8158 154.891H170.381C175.858 154.891 181.111 152.715 184.984 148.842C188.857 144.969 191.033 139.716 191.033 134.238V118.749C191.033 113.272 188.857 108.019 184.984 104.146C181.111 100.273 175.858 98.0971 170.381 98.0971H25.8158C20.3385 98.0971 15.0856 100.273 11.2125 104.146C7.33949 108.019 5.16364 113.272 5.16364 118.749V134.238Z" fill="#F7F7F7"/>
<path d="M92.9354 61.9556L97.99 56.7925H154.138C170.381 56.7925 175.544 67.1186 175.544 67.1186L191.033 97.8852V123.912H92.9354V61.9556Z" fill="#F7F7F7"/>
<path d="M144.566 98.0977H180.707L170.381 77.4455C170.381 77.4455 165.218 67.1194 154.892 67.1194H144.566V98.0977Z" fill="white"/>
<path d="M123.914 154.891C123.914 160.368 126.09 165.621 129.963 169.494C133.836 173.367 139.089 175.543 144.567 175.543C150.044 175.543 155.297 173.367 159.17 169.494C163.043 165.621 165.219 160.368 165.219 154.891C165.219 149.413 163.043 144.161 159.17 140.288C155.297 136.414 150.044 134.239 144.567 134.239C139.089 134.239 133.836 136.414 129.963 140.288C126.09 144.161 123.914 149.413 123.914 154.891Z" fill="#F7F7F7"/>
<path d="M134.243 154.891C134.243 156.247 134.511 157.59 135.03 158.843C135.55 160.096 136.311 161.235 137.27 162.193C138.229 163.152 139.368 163.913 140.621 164.432C141.875 164.95 143.218 165.217 144.574 165.217C145.931 165.216 147.274 164.949 148.527 164.43C149.78 163.91 150.918 163.149 151.877 162.19C152.836 161.23 153.596 160.092 154.115 158.838C154.634 157.585 154.901 156.242 154.9 154.886C154.9 152.146 153.811 149.519 151.873 147.583C149.936 145.646 147.308 144.559 144.569 144.559C141.83 144.56 139.203 145.649 137.266 147.586C135.33 149.524 134.242 152.151 134.243 154.891Z" fill="white"/>
<path d="M30.9789 154.891C30.9789 160.368 33.1547 165.621 37.0277 169.494C40.9008 173.367 46.1537 175.543 51.631 175.543C57.1083 175.543 62.3613 173.367 66.2343 169.494C70.1074 165.621 72.2832 160.368 72.2832 154.891C72.2832 149.413 70.1074 144.161 66.2343 140.288C62.3613 136.414 57.1083 134.239 51.631 134.239C46.1537 134.239 40.9008 136.414 37.0277 140.288C33.1547 144.161 30.9789 149.413 30.9789 154.891Z" fill="#F7F7F7"/>
<path d="M51.6315 144.565C54.3708 144.566 56.9977 145.655 58.9342 147.592C60.8707 149.53 61.9582 152.157 61.9575 154.897C61.9569 157.636 60.868 160.263 58.9305 162.199C56.993 164.136 54.3656 165.223 51.6263 165.223C50.2699 165.222 48.9269 164.955 47.6739 164.435C46.4209 163.916 45.2824 163.155 44.3236 162.196C43.3647 161.236 42.6042 160.097 42.0854 158.844C41.5667 157.591 41.2999 156.248 41.3002 154.891C41.3005 153.535 41.568 152.192 42.0874 150.939C42.6068 149.686 43.3679 148.548 44.3272 147.589C45.2866 146.63 46.4254 145.869 47.6786 145.351C48.9319 144.832 50.2751 144.565 51.6315 144.565ZM25.8162 36.1414H103.262C108.739 36.1414 113.992 38.3173 117.865 42.1903C121.738 46.0633 123.914 51.3163 123.914 56.7936V123.913H5.16406V56.7936C5.16406 51.3163 7.33991 46.0633 11.2129 42.1903C15.086 38.3173 20.3389 36.1414 25.8162 36.1414Z" fill="#F7F7F7"/>
<path d="M41.3075 154.897C41.3078 156.253 41.5753 157.596 42.0947 158.849C42.6141 160.102 43.3752 161.24 44.3345 162.199C45.2939 163.158 46.4327 163.919 47.686 164.437C48.9392 164.956 50.2824 165.223 51.6388 165.223C52.9951 165.222 54.3382 164.955 55.5912 164.435C56.8442 163.916 57.9826 163.155 58.9415 162.196C59.9003 161.236 60.6609 160.097 61.1796 158.844C61.6984 157.591 61.9652 156.248 61.9648 154.891C61.9642 152.152 60.8753 149.525 58.9378 147.589C57.0003 145.652 54.3729 144.565 51.6336 144.565C48.8943 144.566 46.2674 145.655 44.3309 147.592C42.3944 149.53 41.3068 152.157 41.3075 154.897Z" fill="white"/>
</g>
</g>
<defs>
<clipPath id="clip0_761_2613">
<rect width="190" height="198.261" fill="white" transform="matrix(-1 0 0 1 190 0)"/>
</clipPath>
</defs>
</svg>
