<svg width="18" height="15" viewBox="0 0 18 15" fill="none" xmlns="http://www.w3.org/2000/svg">
<path d="M14.6677 2.00439C14.6109 1.99854 14.5537 1.99854 14.4969 2.00439H2.83021C2.75544 2.00554 2.68116 2.01675 2.60938 2.03772L8.63021 8.03356L14.6677 2.00439Z" fill="#BBBCBF"/>
<path d="M15.2833 2.58301L9.21667 8.62467C9.06053 8.77988 8.84932 8.867 8.62917 8.867C8.40901 8.867 8.1978 8.77988 8.04167 8.62467L2.02917 2.62884C2.01068 2.69677 2.00088 2.76678 2 2.83717V11.1705C2 11.3915 2.0878 11.6035 2.24408 11.7598C2.40036 11.916 2.61232 12.0038 2.83333 12.0038H14.5C14.721 12.0038 14.933 11.916 15.0893 11.7598C15.2455 11.6035 15.3333 11.3915 15.3333 11.1705V2.83717C15.33 2.75036 15.3131 2.66461 15.2833 2.58301ZM3.40417 11.1705H2.825V10.5747L5.85417 7.57051L6.44167 8.15801L3.40417 11.1705ZM14.4917 11.1705H13.9083L10.8708 8.15801L11.4583 7.57051L14.4875 10.5747L14.4917 11.1705Z" fill="#BBBCBF"/>
</svg>
