<svg width="27" height="27" viewBox="0 0 27 27" fill="none" xmlns="http://www.w3.org/2000/svg">
<path d="M13.5 16.875C15.364 16.875 16.875 15.364 16.875 13.5C16.875 11.636 15.364 10.125 13.5 10.125C11.636 10.125 10.125 11.636 10.125 13.5C10.125 15.364 11.636 16.875 13.5 16.875Z" fill="#009BF3"/>
<path d="M20.8206 7.44504C18.515 5.86406 16.0476 5.0625 13.4873 5.0625C11.1834 5.0625 8.93742 5.74805 6.8117 7.09172C4.66805 8.44963 2.56658 10.916 0.84375 13.5C2.23699 15.8203 4.14281 18.206 6.12773 19.5739C8.4048 21.1423 10.8807 21.9375 13.4873 21.9375C16.0713 21.9375 18.5419 21.1428 20.8332 19.5755C22.8503 18.1934 24.7699 15.8108 26.1562 13.5C24.7651 11.2097 22.8393 8.82984 20.8206 7.44504ZM13.5 18.5625C12.4987 18.5625 11.5199 18.2656 10.6874 17.7093C9.8549 17.153 9.20603 16.3624 8.82286 15.4373C8.43969 14.5123 8.33944 13.4944 8.53477 12.5124C8.73011 11.5303 9.21227 10.6283 9.92027 9.92027C10.6283 9.21227 11.5303 8.73011 12.5124 8.53477C13.4944 8.33944 14.5123 8.43969 15.4373 8.82286C16.3624 9.20603 17.153 9.8549 17.7093 10.6874C18.2656 11.5199 18.5625 12.4987 18.5625 13.5C18.561 14.8422 18.0271 16.129 17.078 17.078C16.129 18.0271 14.8422 18.561 13.5 18.5625Z" fill="#009BF3"/>
</svg>
