<svg width="31" height="30" viewBox="0 0 31 30" fill="none" xmlns="http://www.w3.org/2000/svg">
<g clip-path="url(#clip0_149_3735)">
<path d="M8.33984 0C7.30859 0 6.46484 0.84375 6.46484 1.875V28.125C6.46484 29.1562 7.30859 30 8.33984 30H27.0898C28.1211 30 28.9648 29.1562 28.9648 28.125V7.5L21.4648 0H8.33984Z" fill="#E2E5E7"/>
<path d="M23.3398 7.5H28.9648L21.4648 0V5.625C21.4648 6.65625 22.3086 7.5 23.3398 7.5Z" fill="#B0B7BD"/>
<path d="M28.9648 13.125L23.3398 7.5H28.9648V13.125Z" fill="#CAD1D8"/>
<path d="M25.2148 24.375C25.2148 24.8906 24.793 25.3125 24.2773 25.3125H3.65234C3.13672 25.3125 2.71484 24.8906 2.71484 24.375V15C2.71484 14.4844 3.13672 14.0625 3.65234 14.0625H24.2773C24.793 14.0625 25.2148 14.4844 25.2148 15V24.375Z" fill="#F15642"/>
<path d="M6.80273 17.7626C6.80273 17.5151 6.99773 17.2451 7.3118 17.2451H9.04336C10.0184 17.2451 10.8959 17.8976 10.8959 19.1482C10.8959 20.3332 10.0184 20.9932 9.04336 20.9932H7.7918V21.9832C7.7918 22.3132 7.5818 22.4998 7.3118 22.4998C7.0643 22.4998 6.80273 22.3132 6.80273 21.9832V17.7626ZM7.7918 18.1892V20.0567H9.04336C9.54586 20.0567 9.94336 19.6132 9.94336 19.1482C9.94336 18.6242 9.54586 18.1892 9.04336 18.1892H7.7918Z" fill="white"/>
<path d="M12.3632 22.4997C12.1157 22.4997 11.8457 22.3647 11.8457 22.0356V17.7775C11.8457 17.5084 12.1157 17.3125 12.3632 17.3125H14.0798C17.5054 17.3125 17.4304 22.4997 14.1473 22.4997H12.3632ZM12.8357 18.2275V21.5856H14.0798C16.1038 21.5856 16.1938 18.2275 14.0798 18.2275H12.8357Z" fill="white"/>
<path d="M18.6466 18.2875V19.479H20.5582C20.8282 19.479 21.0982 19.749 21.0982 20.0106C21.0982 20.2581 20.8282 20.4606 20.5582 20.4606H18.6466V22.0346C18.6466 22.2971 18.4601 22.4987 18.1976 22.4987C17.8676 22.4987 17.666 22.2971 17.666 22.0346V17.7765C17.666 17.5075 17.8685 17.3115 18.1976 17.3115H20.8291C21.1591 17.3115 21.3541 17.5075 21.3541 17.7765C21.3541 18.0165 21.1591 18.2865 20.8291 18.2865H18.6466V18.2875Z" fill="white"/>
<path d="M24.2773 25.3125H6.46484V26.25H24.2773C24.793 26.25 25.2148 25.8281 25.2148 25.3125V24.375C25.2148 24.8906 24.793 25.3125 24.2773 25.3125Z" fill="#CAD1D8"/>
</g>
<defs>
<clipPath id="clip0_149_3735">
<rect width="30" height="30" fill="white" transform="translate(0.839844)"/>
</clipPath>
</defs>
</svg>
