<svg width="15" height="15" viewBox="0 0 15 15" fill="none" xmlns="http://www.w3.org/2000/svg">
<path d="M11.6718 3.60293L10.3606 2.29301C10.2681 2.20011 10.1582 2.12641 10.0371 2.07612C9.91607 2.02584 9.78627 1.99997 9.65518 2C9.38803 2 9.13688 2.10465 8.94851 2.29301L7.53763 3.70389C7.44474 3.79638 7.37103 3.90631 7.32075 4.02737C7.27046 4.14843 7.24459 4.27824 7.24462 4.40933C7.24462 4.67648 7.34927 4.92763 7.53763 5.116L8.56932 6.14769C8.32783 6.67998 7.99207 7.16422 7.57826 7.57703C7.16549 7.99185 6.68129 8.32882 6.14892 8.57178L5.11723 7.5401C5.02474 7.4472 4.9148 7.37349 4.79374 7.32321C4.67268 7.27292 4.54288 7.24706 4.41179 7.24709C4.14463 7.24709 3.89348 7.35173 3.70512 7.5401L2.29301 8.94974C2.2 9.0424 2.12623 9.15254 2.07594 9.27382C2.02566 9.3951 1.99985 9.52512 2 9.65641C2 9.92357 2.10465 10.1747 2.29301 10.3631L3.6017 11.6718C3.9021 11.9734 4.31699 12.1445 4.74296 12.1445C4.83284 12.1445 4.91902 12.1371 5.00396 12.1224C6.66353 11.8491 8.30955 10.9663 9.63795 9.63918C10.9651 8.31325 11.8466 6.66845 12.1236 5.00396C12.2073 4.49551 12.0387 3.97227 11.6718 3.60293Z" fill="#BBBCBF"/>
</svg>
