<?xml version="1.0" encoding="utf-8"?>
<!-- Generator: Adobe Illustrator 26.0.1, SVG Export Plug-In . SVG Version: 6.00 Build 0)  -->
<svg version="1.1" xmlns="http://www.w3.org/2000/svg" xmlns:xlink="http://www.w3.org/1999/xlink" x="0px" y="0px"
	 viewBox="0 0 500 500" style="enable-background:new 0 0 500 500;" xml:space="preserve">
<style type="text/css">
	.st0{fill:#EBEBEB;}
	.st1{fill:#E6E6E6;}
	.st2{fill:#F0F0F0;}
	.st3{fill:#F5F5F5;}
	.st4{fill:#FAFAFA;}
	.st5{fill:#FFFFFF;}
	.st6{opacity:0.6;fill:#E0E0E0;}
	.st7{display:none;}
	.st8{display:inline;}
	.st9{fill:#407BFF;}
	.st10{opacity:0.9;fill:#FFFFFF;}
	.st11{opacity:0.5;fill:#FFFFFF;}
	.st12{opacity:0.7;fill:#FFFFFF;}
	.st13{opacity:0.2;}
	.st14{opacity:0.3;fill:#407BFF;}
	.st15{fill:#E0E0E0;}
	.st16{font-family:'MyriadPro-Bold';}
	.st17{font-size:16.3387px;}
	.st18{fill:#FFB573;}
	.st19{fill:#263238;}
	.st20{fill:#ED893E;}
	.st21{opacity:0.3;}
</style>
<g id="Background_Complete">
	<g>
		<rect y="382.4" class="st0" width="500" height="0.25"/>
		<rect x="416.78" y="398.49" class="st0" width="33.12" height="0.25"/>
		<rect x="322.53" y="401.21" class="st0" width="8.69" height="0.25"/>
		<rect x="396.59" y="389.21" class="st0" width="19.19" height="0.25"/>
		<rect x="52.46" y="390.89" class="st0" width="43.19" height="0.25"/>
		<rect x="104.56" y="390.89" class="st0" width="6.33" height="0.25"/>
		<rect x="131.47" y="395.11" class="st0" width="93.68" height="0.25"/>
		<path class="st0" d="M237.01,337.8H43.92c-3.15,0-5.71-2.56-5.71-5.71V60.66c0-3.15,2.56-5.71,5.71-5.71h193.1
			c3.15,0,5.71,2.56,5.71,5.71v271.43C242.72,335.24,240.16,337.8,237.01,337.8z M43.92,55.2c-3.01,0-5.46,2.45-5.46,5.46v271.43
			c0,3.01,2.45,5.46,5.46,5.46h193.1c3.01,0,5.46-2.45,5.46-5.46V60.66c0-3.01-2.45-5.46-5.46-5.46H43.92z"/>
		<path class="st0" d="M453.31,337.8h-193.1c-3.15,0-5.71-2.56-5.71-5.71V60.66c0-3.15,2.56-5.71,5.71-5.71h193.1
			c3.15,0,5.71,2.56,5.71,5.71v271.43C459.02,335.24,456.46,337.8,453.31,337.8z M260.21,55.2c-3.01,0-5.46,2.45-5.46,5.46v271.43
			c0,3.01,2.45,5.46,5.46,5.46h193.1c3.01,0,5.46-2.45,5.46-5.46V60.66c0-3.01-2.45-5.46-5.46-5.46H260.21z"/>
	</g>
	<g>
		<g>
			
				<rect x="258.34" y="279.48" transform="matrix(-1 -1.224647e-16 1.224647e-16 -1 545.5754 661.8766)" class="st1" width="28.89" height="102.92"/>
			<polygon class="st2" points="263.83,382.4 258.34,382.4 258.34,372.86 269.58,372.86 			"/>
			
				<rect x="423.17" y="279.48" transform="matrix(-1 -1.224647e-16 1.224647e-16 -1 875.2351 661.8766)" class="st1" width="28.89" height="102.92"/>
			
				<rect x="258.34" y="279.48" transform="matrix(-1 -1.224647e-16 1.224647e-16 -1 686.3053 659.374)" class="st2" width="169.62" height="100.42"/>
			<g>
				
					<rect x="352.74" y="304.74" transform="matrix(6.123234e-17 -1 1 6.123234e-17 67.298 727.0646)" class="st1" width="88.88" height="50.28"/>
				<path class="st2" d="M392.21,290.54h9.95c4.32,0,8.45-2.07,11.42-5.73l0,0h-32.79l0,0
					C383.76,288.46,387.89,290.54,392.21,290.54z"/>
			</g>
			<g>
				
					<rect x="298.71" y="304.74" transform="matrix(6.123234e-17 -1 1 6.123234e-17 13.269 673.0356)" class="st1" width="88.88" height="50.28"/>
				<path class="st2" d="M337.67,290.54h9.95c4.32,0,8.45-2.07,11.42-5.73l0,0h-32.79l0,0
					C329.22,288.46,333.35,290.54,337.67,290.54z"/>
			</g>
			<g>
				
					<rect x="244.68" y="304.74" transform="matrix(6.123234e-17 -1 1 6.123234e-17 -40.7599 619.0067)" class="st1" width="88.88" height="50.28"/>
				<path class="st2" d="M283.64,290.54h9.95c4.32,0,8.45-2.07,11.42-5.73l0,0h-32.79l0,0
					C275.19,288.46,279.32,290.54,283.64,290.54z"/>
			</g>
			<polygon class="st2" points="422.47,382.4 427.96,382.4 427.96,372.86 416.72,372.86 			"/>
		</g>
		<g>
			<g>
				<g>
					<g>
						
							<rect x="76.65" y="87.69" transform="matrix(-1 -1.224647e-16 1.224647e-16 -1 347.131 340.4077)" class="st1" width="193.83" height="165.03"/>
						
							<rect x="72.29" y="87.69" transform="matrix(-1 -1.224647e-16 1.224647e-16 -1 340.8732 340.4077)" class="st3" width="196.29" height="165.03"/>
						
							<rect x="95.84" y="79.89" transform="matrix(-1.836970e-16 1 -1 -1.836970e-16 340.6406 -0.2329)" class="st4" width="149.19" height="180.63"/>
						<polygon class="st5" points="238.59,244.8 167.5,95.61 143.35,95.61 214.44,244.8 						"/>
						<polygon class="st5" points="207.6,244.8 136.5,95.61 119.88,95.61 190.97,244.8 						"/>
						
							<rect x="67.92" y="165.53" transform="matrix(-1.836970e-16 1 -1 -1.836970e-16 312.725 27.6828)" class="st1" width="149.19" height="9.34"/>
						
							<rect x="130.01" y="165.53" transform="matrix(-1.836970e-16 1 -1 -1.836970e-16 374.8138 -34.4059)" class="st1" width="149.19" height="9.34"/>
						
							<rect x="59.55" y="163.87" transform="matrix(-1.836970e-16 1 -1 -1.836970e-16 309.3755 30.1688)" class="st3" width="160.11" height="11.81"/>
						
							<rect x="121.64" y="163.87" transform="matrix(-1.836970e-16 1 -1 -1.836970e-16 371.4644 -31.92)" class="st3" width="160.11" height="11.81"/>
						
							<rect x="5.94" y="169.79" transform="matrix(-1.836970e-16 1 -1 -1.836970e-16 250.7401 89.6675)" class="st1" width="149.19" height="0.83"/>
					</g>
				</g>
			</g>
			<g>
				<g>
					<path class="st1" d="M69,77.5h209.99c0.56,0,1.01,0.45,1.01,1.01l0,0c0,0.56-0.45,1.01-1.01,1.01H69
						c-0.56,0-1.01-0.45-1.01-1.01l0,0C67.99,77.96,68.45,77.5,69,77.5z"/>
					<path class="st1" d="M270.48,84.17L270.48,84.17c0.75,0,1.36-0.61,1.36-1.36v-2.93c0-0.75-0.61-1.36-1.36-1.36l0,0
						c-0.75,0-1.36,0.61-1.36,1.36v2.93C269.11,83.55,269.73,84.17,270.48,84.17z"/>
					<path class="st1" d="M84.23,84.17L84.23,84.17c0.75,0,1.36-0.61,1.36-1.36v-2.93c0-0.75-0.61-1.36-1.36-1.36l0,0
						c-0.75,0-1.36,0.61-1.36,1.36v2.93C82.87,83.55,83.48,84.17,84.23,84.17z"/>
				</g>
				
					<rect x="69.33" y="78.51" transform="matrix(-1 -1.224647e-16 1.224647e-16 -1 334.8002 238.9324)" class="st6" width="196.15" height="81.91"/>
			</g>
		</g>
		<g>
			
				<rect x="72.01" y="299.75" transform="matrix(-1 -1.224647e-16 1.224647e-16 -1 149.0585 682.1528)" class="st1" width="5.04" height="82.64"/>
			<g>
				<g>
					<rect x="162.95" y="283.67" class="st1" width="27.29" height="16.08"/>
					
						<rect x="54.56" y="283.67" transform="matrix(-1 -1.224647e-16 1.224647e-16 -1 217.512 583.4267)" class="st3" width="108.39" height="16.08"/>
				</g>
			</g>
			<g>
				<g>
					<rect x="162.95" y="309.75" class="st1" width="27.29" height="16.08"/>
					
						<rect x="54.56" y="309.75" transform="matrix(-1 -1.224647e-16 1.224647e-16 -1 217.512 635.5925)" class="st3" width="108.39" height="16.08"/>
				</g>
			</g>
			<g>
				<g>
					<rect x="162.95" y="335.84" class="st1" width="27.29" height="16.08"/>
					
						<rect x="54.56" y="335.84" transform="matrix(-1 -1.224647e-16 1.224647e-16 -1 217.512 687.7583)" class="st3" width="108.39" height="16.08"/>
				</g>
			</g>
			
				<rect x="180.4" y="299.75" transform="matrix(-1 -1.224647e-16 1.224647e-16 -1 365.8402 682.1528)" class="st1" width="5.04" height="82.64"/>
			
				<rect x="157.91" y="299.75" transform="matrix(-1 -1.224647e-16 1.224647e-16 -1 320.8647 682.1528)" class="st3" width="5.04" height="82.64"/>
			
				<rect x="54.56" y="299.75" transform="matrix(-1 -1.224647e-16 1.224647e-16 -1 114.1593 682.1528)" class="st3" width="5.04" height="82.64"/>
		</g>
	</g>
</g>
<g id="Background_Simple" class="st7">
	<g class="st8">
		<path class="st9" d="M435.5,259.23c17.69-41.36-8.06-96.42-50.6-119.4c-37.11-20.04-70.04-3.54-104.89-34.47
			c-32.47-28.81-53.44-65.07-104.65-62.64c-40.28,1.91-62.45,32.84-81.03,66.07c-50.8,90.87-24.35,155.17,70.92,194.25
			c45.54,18.68,104.04,36.15,153.58,34.61C378.28,335.81,413.55,310.51,435.5,259.23z"/>
		<path class="st10" d="M435.5,259.23c17.69-41.36-8.06-96.42-50.6-119.4c-37.11-20.04-70.04-3.54-104.89-34.47
			c-32.47-28.81-53.44-65.07-104.65-62.64c-40.28,1.91-62.45,32.84-81.03,66.07c-50.8,90.87-24.35,155.17,70.92,194.25
			c45.54,18.68,104.04,36.15,153.58,34.61C378.28,335.81,413.55,310.51,435.5,259.23z"/>
	</g>
</g>
<g id="Shadow_1_">
	<ellipse id="_x3C_Path_x3E__89_" class="st3" cx="250" cy="416.24" rx="193.89" ry="11.32"/>
</g>
<g id="Invoice">
	<g>
		<g>
			<g>
				<path class="st9" d="M396.01,370.84H233.6c-6.84,0-12.01-5.6-11.49-12.44l19.9-260.77c0.52-6.84,6.55-12.44,13.39-12.44H417.8
					c6.84,0,12.01,5.6,11.49,12.44L409.4,358.4C408.87,365.24,402.85,370.84,396.01,370.84z"/>
				<path class="st11" d="M396.01,370.84H233.6c-6.84,0-12.01-5.6-11.49-12.44l19.9-260.77c0.52-6.84,6.55-12.44,13.39-12.44H417.8
					c6.84,0,12.01,5.6,11.49,12.44L409.4,358.4C408.87,365.24,402.85,370.84,396.01,370.84z"/>
			</g>
			<g>
				<path class="st9" d="M393.59,370.84H231.18c-6.84,0-12.01-5.6-11.49-12.44l19.9-260.77c0.52-6.84,6.55-12.44,13.39-12.44h162.41
					c6.84,0,12.01,5.6,11.49,12.44l-19.9,260.77C406.46,365.24,400.43,370.84,393.59,370.84z"/>
				<path class="st12" d="M393.59,370.84H231.18c-6.84,0-12.01-5.6-11.49-12.44l19.9-260.77c0.52-6.84,6.55-12.44,13.39-12.44
					h162.41c6.84,0,12.01,5.6,11.49,12.44l-19.9,260.77C406.46,365.24,400.43,370.84,393.59,370.84z"/>
			</g>
			<path class="st9" d="M231.5,366.69c-4.57,0-8.01-3.72-7.66-8.29l19.63-257.31c0.35-4.57,4.35-8.29,8.93-8.29H414.8
				c4.57,0,8.01,3.72,7.66,8.29L402.83,358.4c-0.35,4.57-4.35,8.29-8.93,8.29H231.5z"/>
			<path class="st13" d="M392.76,136.08H276.54c-2.7,0-4.75-2.21-4.54-4.92l0,0c0.21-2.7,2.59-4.92,5.29-4.92h116.22
				c2.7,0,4.75,2.21,4.54,4.92l0,0C397.85,133.87,395.47,136.08,392.76,136.08z"/>
			<path class="st14" d="M343.18,90.26h-18.77c-0.67,0-1.17-0.54-1.12-1.21l0,0c0.05-0.67,0.64-1.21,1.3-1.21h18.77
				c0.67,0,1.17,0.54,1.12,1.21l0,0C344.43,89.72,343.85,90.26,343.18,90.26z"/>
		</g>
		<g>
			<path class="st2" d="M276.03,131.16c0.57-7.52-5.06-13.6-12.57-13.6h117.99c7.51,0,13.14,6.08,12.57,13.6H276.03z"/>
			<path class="st5" d="M263.47,117.56c-7.51,0-14.07,6.08-14.64,13.6l-12.09,158.47c-0.57,7.52-7.14,13.6-14.64,13.6h117.99
				c7.51,0,14.07-6.08,14.64-13.6l12.09-158.47c0.57-7.52,7.14-13.6,14.64-13.6H263.47z"/>
			<path class="st2" d="M327.52,289.63c-0.57,7.52,5.06,13.6,12.57,13.6H222.09c-7.51,0-13.14-6.08-12.57-13.6H327.52z"/>
			<path class="st15" d="M258.45,286.5c0.44-5.79-1.38-10.48-7.16-10.48h90.86c5.78,0,10.13,5.29,7.16,10.48H258.45z"/>
			<path class="st2" d="M327.52,289.63c0.57-7.52,7.14-13.6,14.64-13.6H224.17c-7.51,0-14.07,6.08-14.64,13.6H327.52z"/>
		</g>
		<path class="st5" d="M383.31,328.92H247.86c-1.96,0-3.45-1.61-3.3-3.57l0,0c0.15-1.96,1.88-3.57,3.84-3.57h135.45
			c1.96,0,3.45,1.61,3.3,3.57l0,0C387,327.31,385.27,328.92,383.31,328.92z"/>
		<path class="st5" d="M314.91,346.08h-68.36c-1.96,0-3.45-1.61-3.3-3.57l0,0c0.15-1.96,1.88-3.57,3.84-3.57h68.36
			c1.96,0,3.45,1.61,3.3,3.57l0,0C318.6,344.48,316.87,346.08,314.91,346.08z"/>
		<path class="st5" d="M362.24,346.08h-27.69c-1.96,0-3.45-1.61-3.3-3.57l0,0c0.15-1.96,1.88-3.57,3.84-3.57h27.69
			c1.96,0,3.45,1.61,3.3,3.57l0,0C365.93,344.48,364.2,346.08,362.24,346.08z"/>
		<g>
			<path class="st5" d="M389.93,278.18l-7.07,1.11c-0.28-0.89-0.55-1.5-0.81-1.85c-0.26-0.34-0.69-0.69-1.32-1.04l-0.41,5.43
				c3.73,1.01,6.18,2.09,7.38,3.21c1.57,1.52,2.27,3.44,2.09,5.77c-0.1,1.36-0.5,2.62-1.2,3.76c-0.69,1.14-1.54,2.09-2.55,2.85
				c-1,0.76-2.05,1.32-3.14,1.66c-1.09,0.34-2.41,0.55-3.95,0.61l-0.27,3.55h-2.74l0.27-3.55c-1.83-0.16-3.3-0.46-4.41-0.89
				c-1.11-0.43-2.05-1.03-2.83-1.79c-0.77-0.76-1.35-1.59-1.74-2.47c-0.38-0.88-0.64-1.95-0.77-3.2l7.65-0.88
				c0.13,1.24,0.37,2.13,0.71,2.68c0.34,0.55,0.93,1.04,1.77,1.46l0.51-6.63c-2.47-0.7-4.22-1.31-5.24-1.82
				c-1.02-0.51-1.87-1.34-2.56-2.47c-0.69-1.13-0.97-2.51-0.85-4.14c0.17-2.23,1.09-4.09,2.76-5.59c1.67-1.5,4.05-2.33,7.14-2.49
				l0.14-1.86h2.74l-0.14,1.86c2.79,0.18,4.88,0.84,6.28,1.99C388.78,274.6,389.63,276.18,389.93,278.18z M378,276.3
				c-0.82,0.26-1.4,0.59-1.75,0.98c-0.34,0.39-0.53,0.85-0.57,1.38c-0.04,0.55,0.08,1.03,0.37,1.44c0.29,0.41,0.82,0.75,1.59,1.03
				L378,276.3z M379.33,294.79c1.08-0.24,1.89-0.63,2.43-1.18c0.54-0.55,0.83-1.16,0.88-1.84c0.05-0.59-0.12-1.13-0.5-1.63
				c-0.38-0.5-1.16-0.96-2.34-1.38L379.33,294.79z"/>
		</g>
		<g>
			<text transform="matrix(1.0296 3.706760e-03 -0.2462 0.9692 255.4742 172.1261)" class="st9 st16 st17">E- INVOICING</text>
		</g>
		<polygon class="st9" points="352.36,186.55 254.83,186.55 255.03,183.85 352.57,183.85 		"/>
		<polygon class="st2" points="352.36,186.55 254.83,186.55 254.19,194.84 351.73,194.84 		"/>
		<polygon class="st2" points="351.1,203.12 253.56,203.12 252.93,211.4 350.47,211.4 		"/>
		<polygon class="st2" points="349.83,219.68 252.3,219.68 251.67,227.97 349.2,227.97 		"/>
		<polygon class="st2" points="348.57,236.25 251.03,236.25 250.4,244.53 347.94,244.53 		"/>
		<polygon class="st9" points="347.1,255.52 249.56,255.52 249.77,252.81 347.31,252.81 		"/>
		<polygon class="st2" points="335.94,136.08 356.21,136.08 355.29,148.17 335.02,148.17 		"/>
	</g>
</g>
<g id="Character_1_">
	<g>
		<path class="st18" d="M137.18,213.01l3.63,1.46c1.32,0.53,2.48,1.4,3.36,2.51l1.66,2.1c1.1,1.39,1.05,3.37-0.12,4.71l-1.77,2.01
			c-1.35,1.54-3.71,1.68-5.23,0.31l-1.69-1.52c0,0-5.2-3.65-6.73-8.48l1-1C132.92,213.47,135.09,212.7,137.18,213.01z"/>
		<path class="st18" d="M147.1,177.92l-1.18,0.78l-1.31,0.9c-0.87,0.62-1.75,1.26-2.6,1.91c-1.7,1.32-3.37,2.7-4.91,4.15
			c-3.11,2.89-5.81,6.06-7.73,9.42c-0.25,0.42-0.47,0.84-0.68,1.27l-0.16,0.32c0.03-0.08,0.09-0.31,0.11-0.41
			c0.04-0.27,0.04-0.42,0.02-0.51c-0.1-0.29-0.1,0.46,0.12,1.2c0.45,1.58,1.37,3.6,2.39,5.54c2.06,3.94,4.64,7.99,7.08,11.98
			l0.06,0.1c1.01,1.66,0.48,3.82-1.17,4.83c-1.28,0.78-2.86,0.64-3.98-0.22c-2.06-1.6-3.9-3.24-5.72-5.02
			c-1.82-1.77-3.55-3.65-5.21-5.69c-1.64-2.08-3.25-4.22-4.6-7.13c-0.34-0.74-0.66-1.53-0.94-2.46c-0.27-0.92-0.5-2-0.52-3.37
			c0-0.69,0.05-1.44,0.24-2.3c0.08-0.39,0.25-0.91,0.38-1.27l0.19-0.51c0.25-0.69,0.53-1.37,0.82-2.03
			c2.35-5.32,5.76-9.82,9.53-13.69c1.9-1.94,3.9-3.72,6.01-5.37c1.05-0.82,2.13-1.62,3.24-2.37c0.56-0.38,1.12-0.76,1.7-1.11
			l0.89-0.54l1.01-0.59c3.34-1.93,7.62-0.79,9.55,2.56c1.86,3.22,0.87,7.3-2.19,9.32L147.1,177.92z"/>
		<path class="st19" d="M147.22,162.05c-5.84,0.03-12.24,2.53-20.44,12.7c0,6.07,12.81,14.14,12.81,14.14
			S160.59,161.98,147.22,162.05z"/>
		<path class="st19" d="M103.83,402.44c-0.1,0-0.2-0.02-0.31-0.05c-1.21-0.43-2.35-3.51-2.43-5.22c0-0.11,0.06-0.21,0.16-0.26
			c0.1-0.05,0.22-0.04,0.3,0.03c0.13,0.1,3.14,2.57,3.29,4.23c0.03,0.35-0.06,0.66-0.28,0.9
			C104.35,402.31,104.1,402.44,103.83,402.44z M101.74,397.83c0.27,1.63,1.2,3.75,1.97,4.02c0.11,0.04,0.25,0.05,0.43-0.16
			c0.11-0.13,0.16-0.28,0.14-0.48C104.2,400.24,102.72,398.71,101.74,397.83z"/>
		<path class="st19" d="M105.71,398.77c-1.4,0-3.42-0.68-4.49-1.38c-0.09-0.06-0.14-0.17-0.12-0.28c0.02-0.11,0.1-0.2,0.21-0.23
			c0.16-0.04,3.93-1.03,5.36-0.16c0.3,0.18,0.5,0.44,0.57,0.75c0.1,0.44-0.03,0.8-0.36,1.03
			C106.6,398.69,106.19,398.77,105.71,398.77z M102.14,397.26c1.47,0.74,3.74,1.24,4.41,0.78c0.1-0.07,0.19-0.17,0.13-0.44
			c-0.04-0.16-0.14-0.29-0.31-0.4C105.54,396.69,103.43,396.99,102.14,397.26z"/>
		<path class="st9" d="M90.74,396.49c1.69-2.06,4.54-4.81,7.46-10.59c0,0,9.27,2.28,7.45,4.96c-3.3,4.85-4.92,14.82-0.66,20.16
			c2.43,3.05-1.41,3.55-3.95,2.25c-4.04-2.08-3.87-2.85-5.97-6.28c-1.8-2.94-2.5-4.09-4.97-5.34
			C88.04,400.6,89.04,398.56,90.74,396.49z"/>
		<path class="st19" d="M169.44,222.33c0,0-13.46,65.6-23.3,93.62c-10.34,29.42-38.88,74.83-39.98,76.77
			c-4.06-1.08-7.68-2.5-10.09-4.86c0,0,13.4-49.25,26.47-81.2c4.96-66.69,15.89-84.33,15.89-84.33H169.44z"/>
		<path class="st13" d="M148.91,257.43c-0.61,12.69-1.03,30.14-0.43,51.38c4.11-13.24,8.58-31.19,12.34-47.3
			C158.31,258.16,154.41,256.55,148.91,257.43z"/>
		<path class="st18" d="M149.72,141.89c1.41,5.7,2.79,15.01,0.54,19.96c0,0,8.42,0.37,19.18,8.96c5.07-7.44-0.8-8.9-0.8-8.9
			c-4.47-1.05-4.25-7.01-4.25-11.25L149.72,141.89z"/>
		<g>
			<path class="st9" d="M147.6,164.44c-4.2-0.46-1.3-8.44,0.89-7.67c5.52,1.96,17.89-0.22,21.72,1.89c3.83,2.11,2.86,6.44,2.86,6.44
				S152.12,164.94,147.6,164.44z"/>
			<path class="st12" d="M147.6,164.44c-4.2-0.46-1.3-8.44,0.89-7.67c5.52,1.96,17.89-0.22,21.72,1.89
				c3.83,2.11,2.86,6.44,2.86,6.44S152.12,164.94,147.6,164.44z"/>
		</g>
		<path class="st19" d="M172.1,131.82c0.14,0.76,0.65,1.31,1.15,1.22c0.5-0.09,0.79-0.78,0.66-1.54c-0.14-0.76-0.65-1.31-1.15-1.22
			C172.26,130.37,171.97,131.06,172.1,131.82z"/>
		<path class="st19" d="M172.55,130.36l1.74-0.85C174.29,129.51,173.6,131.11,172.55,130.36z"/>
		<path class="st19" d="M173.12,125.72c0.05-0.1,0.07-0.22,0.04-0.34c-0.07-0.24-0.31-0.39-0.56-0.32
			c-2.43,0.65-3.11,2.64-3.14,2.72c-0.08,0.24,0.05,0.5,0.29,0.57c0.24,0.08,0.5-0.05,0.57-0.29c0.03-0.08,0.57-1.61,2.51-2.13
			C172.96,125.91,173.06,125.82,173.12,125.72z"/>
		<path class="st20" d="M173,133.68c0,0,1.65,3.18,3.26,4.64c-0.92,1.06-2.7,0.8-2.7,0.8L173,133.68z"/>
		<path class="st18" d="M146,131.43c2.23,9.28,2.97,13.25,8.47,17.24c8.27,6,18.95,1.27,19.49-8.48c0.48-8.77-3.24-22.47-12.9-24.61
			C151.54,113.47,143.77,122.15,146,131.43z"/>
		<path class="st19" d="M163.98,133.14c5.46-7.22,9.03-13.05,6.33-19.44c-2.25-5.34-8.48-3.78-9.35-1.11
			c-16.56-1.41-22.51,4.59-19.09,14.51c2.18,6.32-6.28,3.05-4.22,11.08c1.58,6.16-3.99,8.51-1.16,12.05
			c4.08,5.11,12.5-1.56,22.11,2.28C166.45,155.64,178.27,150.89,163.98,133.14z"/>
		<path class="st18" d="M163.09,134.6c1.08,1.7,2.7,2.65,4.15,2.86c2.17,0.32,2.92-2.12,2.03-4.38c-0.8-2.04-2.9-4.65-4.94-3.93
			C162.31,129.86,161.86,132.65,163.09,134.6z"/>
		<path class="st19" d="M166.32,408.56c-1.39,0-3.67-1.1-4.73-2.06c-0.08-0.07-0.11-0.19-0.08-0.3c0.03-0.11,0.13-0.18,0.24-0.19
			c0.16-0.02,4.04-0.44,5.32,0.62c0.27,0.23,0.43,0.51,0.45,0.83c0.03,0.45-0.14,0.79-0.5,0.97
			C166.83,408.51,166.59,408.56,166.32,408.56z M162.51,406.5c1.35,0.94,3.52,1.77,4.25,1.41c0.11-0.05,0.21-0.14,0.19-0.42
			c-0.01-0.17-0.09-0.31-0.25-0.44C165.96,406.44,163.83,406.42,162.51,406.5z"/>
		<path class="st19" d="M161.78,406.57c-0.09,0-0.17-0.04-0.23-0.12c-0.07-0.09-0.07-0.21-0.02-0.31c0.08-0.14,2.02-3.52,3.64-3.93
			c0.34-0.09,0.66-0.05,0.93,0.12c0.38,0.24,0.55,0.58,0.48,0.98c-0.22,1.27-3.08,2.9-4.75,3.25
			C161.82,406.56,161.8,406.57,161.78,406.57z M165.51,402.73c-0.06,0-0.13,0.01-0.2,0.03c-0.95,0.24-2.21,1.96-2.92,3.06
			c1.56-0.54,3.51-1.8,3.65-2.6c0.02-0.12,0.01-0.26-0.22-0.4C165.72,402.76,165.62,402.73,165.51,402.73z"/>
		<path class="st9" d="M173.75,412.07c-8.1-0.63-13.56-6.19-12.98-12.08c0.32-3.25-10.07-3.54-10.07-3.54
			c1.64,10.07-0.42,11.51-1.1,14.11c-0.68,2.61-0.51,5.48,1.64,5.53c2.57,0.06,3.77-0.43,6.97-0.3c3.74,0.15,7.78,0.29,14.42,0.3
			C175.28,416.1,177.35,412.35,173.75,412.07z"/>
		<path class="st19" d="M183.44,222.33c0,0-0.71,49.68-4.63,82.33c-3.92,32.65-17.4,96.69-17.4,96.69c-3.9,0.76-7.55,0.88-10.77-0.1
			c0,0-4.26-50.03,2.9-98.37c-5.26-50.66-8.55-80.56-8.55-80.56H183.44z"/>
		<path class="st9" d="M185.28,176.37c-0.17,3.84,5.89,12.71-1.59,17.86c1.4,3.12,2.58,24.31-0.25,28.1
			c-4.13,3.03-26.48,2.44-45.02,0c-0.78-7.66,3.43-23.53-1.73-48.28c-1.2-5.74,2.84-11.25,8.67-11.83c1.56-0.16,3.21-0.29,4.9-0.37
			c6.57-0.32,11.95-0.53,17.73,0c1.91,0.17,3.89,0.42,5.78,0.68C180.59,163.49,185.58,169.49,185.28,176.37z"/>
		<g class="st21">
			<path class="st19" d="M137.16,172.72c-0.14,0.07-0.28,0.15-0.42,0.22l0,0c0,0,0,0,0,0c-0.13,0.07-0.17,0.22-0.1,0.35
				c0.07,0.13,0.22,0.17,0.35,0.1c0.15-0.08,0.3-0.17,0.45-0.25c1.98,0.73,4.14,2.39,5.37,2.56c-1.98-1.75-3.41-3.01-4.97-2.78
				c0.47-0.27,0.93-0.56,1.39-0.86c1.82,0.68,3.8,2.2,4.93,2.35c-1.84-1.63-3.16-2.79-4.61-2.56c0.34-0.23,0.68-0.46,1.02-0.7
				c0.19-0.13,0.38-0.27,0.57-0.41c1.64,0.71,3.39,2.23,4.42,2.43c-1.65-1.64-2.82-2.8-4.22-2.57c0.44-0.32,0.87-0.66,1.29-1
				c1.51,0.66,3.11,2.04,4.06,2.23c-1.52-1.51-2.6-2.57-3.88-2.37c0.36-0.29,0.73-0.59,1.08-0.9c0.09-0.07,0.17-0.15,0.26-0.22
				c1.33,0.7,2.65,2.08,3.52,2.33c-1.26-1.51-2.14-2.56-3.46-2.38c0.34-0.3,0.68-0.6,1.01-0.9c1.23,0.64,2.44,1.91,3.24,2.14
				c-1.16-1.39-1.96-2.35-3.18-2.2c0.35-0.32,0.71-0.65,1.05-0.99c1.07,0.66,2.09,1.86,2.8,2.11c-0.96-1.31-1.64-2.23-2.73-2.18
				c0.19-0.18,0.38-0.37,0.56-0.55c0.11-0.11,0.21-0.22,0.32-0.33c0.99,0.61,1.93,1.71,2.58,1.94c-0.89-1.21-1.51-2.06-2.52-2.01
				c0.29-0.3,0.58-0.6,0.86-0.92c0.91,0.48,1.75,1.42,2.36,1.59c-0.8-1.02-1.35-1.73-2.32-1.64c0.05-0.06,0.11-0.11,0.16-0.17
				c0.2-0.23,0.41-0.46,0.6-0.7c0.82,0.45,1.59,1.29,2.15,1.45c-0.72-0.93-1.23-1.58-2.09-1.51c0.23-0.28,0.46-0.57,0.66-0.88
				c0.02-0.04,0.02-0.09-0.02-0.11c-0.04-0.03-0.09-0.02-0.11,0.02l0,0c-0.2,0.28-0.41,0.55-0.63,0.81
				c0.08-0.45-0.08-0.86-0.36-1.32c-0.11,0.01-0.23,0.01-0.34,0.02c0.18,0.46,0.42,0.97,0.55,1.48c-0.18,0.2-0.36,0.4-0.54,0.6
				c-0.04,0.05-0.09,0.09-0.13,0.14c0.19-0.72-0.19-1.35-0.77-2.16c-0.06,0-0.12,0.01-0.18,0.02c0.16,0.62,0.62,1.46,0.82,2.28
				c-0.26,0.28-0.53,0.55-0.8,0.82c0.25-0.92-0.38-1.73-1.28-2.88c0.04,0.69,0.84,1.89,1.16,2.99c-0.09,0.09-0.19,0.19-0.28,0.28
				c-0.18,0.17-0.36,0.34-0.55,0.52c0.25-0.99-0.43-1.86-1.39-3.1c0.05,0.74,0.91,2.03,1.26,3.23c-0.32,0.29-0.64,0.58-0.96,0.87
				c0.21-1-0.45-1.97-1.37-3.3c0.01,0.79,0.81,2.2,1.14,3.5c-0.26,0.23-0.53,0.45-0.79,0.67c0.23-1.08-0.49-2.14-1.48-3.59
				c0.01,0.86,0.88,2.38,1.24,3.79c-0.07,0.06-0.14,0.12-0.21,0.17c-0.36,0.3-0.73,0.59-1.11,0.88c0.29-1.1-0.4-2.36-1.34-4.06
				c-0.07,0.92,0.75,2.72,1.02,4.31c-0.42,0.32-0.84,0.63-1.27,0.93c0.48-1.25-0.3-2.66-1.38-4.63c-0.08,1.03,0.86,3.06,1.12,4.81
				c-0.13,0.09-0.25,0.17-0.38,0.26c-0.39,0.27-0.79,0.52-1.2,0.77c0.56-1.27-0.11-2.77-1.1-4.82c-0.05,0.07-0.1,0.14-0.14,0.21
				c0.08,1.2,0.77,3.13,0.93,4.8c-0.45,0.27-0.9,0.54-1.36,0.79c0.52-1.06,0.23-2.26-0.42-3.76c-0.15,0.42-0.26,0.86-0.35,1.31
				C136.89,170.97,137.09,171.88,137.16,172.72z"/>
			<path class="st19" d="M162.71,165.79c-1.51-0.96-2.99-2.73-3.98-3.1c1.37,1.88,2.34,3.21,3.76,3.21
				c-0.48,0.25-0.96,0.51-1.44,0.78c-1.39-0.89-2.75-2.51-3.65-2.85c1.26,1.73,2.16,2.95,3.46,2.96c-0.41,0.23-0.81,0.47-1.21,0.71
				c-0.1,0.06-0.19,0.12-0.29,0.18c-1.2-0.9-2.29-2.47-3.11-2.86c1,1.69,1.7,2.86,3.04,2.9c-0.38,0.24-0.77,0.48-1.15,0.73
				c-1.11-0.83-2.1-2.27-2.86-2.63c0.92,1.55,1.57,2.63,2.79,2.68c-0.4,0.26-0.8,0.53-1.19,0.81c-0.95-0.82-1.77-2.17-2.43-2.53
				c0.74,1.45,1.26,2.46,2.35,2.59c-0.22,0.15-0.43,0.3-0.64,0.46c-0.12,0.09-0.24,0.18-0.37,0.27c-0.88-0.75-1.63-2-2.24-2.33
				c0.68,1.34,1.17,2.27,2.17,2.38c-0.34,0.25-0.67,0.5-0.99,0.77c-0.82-0.62-1.51-1.68-2.08-1.95c0.62,1.14,1.06,1.93,2.03,1.98
				c-0.06,0.05-0.12,0.09-0.18,0.14c-0.24,0.2-0.47,0.39-0.71,0.59c-0.74-0.58-1.37-1.53-1.89-1.77c0.57,1.03,0.97,1.75,1.83,1.83
				c-0.28,0.24-0.54,0.49-0.8,0.77c-0.03,0.03-0.03,0.08,0,0.12c0.03,0.03,0.09,0.03,0.12,0l0,0c0.24-0.24,0.49-0.47,0.75-0.7
				c-0.24,0.68,0.11,1.37,0.59,2.31c0.08-0.55-0.33-1.55-0.41-2.46c0.21-0.17,0.42-0.34,0.63-0.51c0.05-0.04,0.1-0.08,0.15-0.12
				c-0.34,0.77,0.05,1.54,0.6,2.61c0.09-0.61-0.37-1.73-0.45-2.73c0.3-0.23,0.61-0.46,0.92-0.68c-0.4,0.87,0.1,1.77,0.8,3.05
				c0.07-0.69-0.54-2-0.67-3.14c0.11-0.08,0.22-0.16,0.32-0.23c0.21-0.14,0.41-0.28,0.62-0.42c-0.41,0.93,0.13,1.91,0.88,3.28
				c0.07-0.74-0.57-2.15-0.73-3.39c0.36-0.24,0.72-0.47,1.09-0.71c-0.36,0.95,0.14,2.01,0.83,3.47c0.12-0.78-0.45-2.3-0.57-3.63
				c0.29-0.18,0.59-0.36,0.89-0.54c-0.4,1.03,0.14,2.19,0.9,3.78c0.13-0.85-0.49-2.49-0.62-3.94c0.08-0.05,0.16-0.09,0.23-0.14
				c0.41-0.24,0.82-0.47,1.23-0.69c-0.46,1.04,0.02,2.39,0.68,4.22c0.22-0.9-0.31-2.81-0.32-4.42c0.46-0.25,0.93-0.49,1.4-0.72
				c-0.67,1.16-0.13,2.68,0.63,4.79c0.24-1-0.36-3.15-0.35-4.93c0.14-0.07,0.27-0.13,0.41-0.2c0.43-0.2,0.87-0.39,1.31-0.58
				c-0.78,1.22-0.29,2.89,0.41,5.22c0.33-1.07-0.19-3.44-0.07-5.36c0.48-0.2,0.97-0.39,1.46-0.56c-0.94,1.33-0.4,3.17,0.37,5.76
				c0.36-1.17-0.22-3.77-0.07-5.87c0.15-0.05,0.3-0.11,0.45-0.16l0,0c0,0,0,0,0,0c0.13-0.05,0.21-0.19,0.16-0.33
				c-0.05-0.13-0.19-0.21-0.33-0.16c-0.16,0.06-0.32,0.12-0.49,0.18c-1.16-0.65-2.32-1.67-3.32-2.43c-0.27-0.01-0.53-0.01-0.8-0.02
				c1.3,1.54,2.37,2.59,3.7,2.61c-0.51,0.2-1.01,0.41-1.51,0.63c-1.69-0.96-3.4-2.77-4.49-3.1c1.56,1.9,2.68,3.25,4.15,3.25
				c-0.38,0.17-0.75,0.34-1.12,0.52C163.13,165.58,162.92,165.68,162.71,165.79z"/>
			<path class="st19" d="M150.22,184.49c-1.1-1.2-1.88-2.03-2.95-1.86c0.17-0.2,0.33-0.41,0.5-0.61c0.09-0.12,0.19-0.24,0.28-0.36
				c1.05,0.49,2.11,1.49,2.78,1.64c-1.02-1.11-1.73-1.88-2.72-1.72c0.26-0.33,0.51-0.66,0.75-1c0.95,0.38,1.9,1.21,2.52,1.32
				c-0.91-0.93-1.54-1.57-2.48-1.37c0.04-0.06,0.09-0.12,0.14-0.19c0.18-0.25,0.35-0.5,0.52-0.76c0.87,0.36,1.73,1.11,2.29,1.2
				c-0.82-0.84-1.4-1.43-2.25-1.27c0.2-0.31,0.39-0.62,0.56-0.95c0.02-0.04,0.01-0.09-0.03-0.11c-0.04-0.02-0.09-0.01-0.11,0.03l0,0
				c-0.16,0.3-0.35,0.59-0.54,0.87c0.05-0.72-0.47-1.29-1.19-2.07c0.07,0.55,0.73,1.41,1.05,2.27c-0.16,0.22-0.31,0.44-0.47,0.66
				c-0.04,0.05-0.08,0.1-0.12,0.15c0.12-0.83-0.46-1.47-1.28-2.36c0.07,0.61,0.82,1.56,1.16,2.51c-0.23,0.3-0.47,0.6-0.71,0.9
				c0.15-0.94-0.57-1.68-1.59-2.72c0.12,0.68,1.05,1.78,1.49,2.85c-0.08,0.1-0.17,0.21-0.25,0.31c-0.16,0.19-0.32,0.38-0.49,0.57
				c0.14-1.01-0.63-1.81-1.73-2.92c0.13,0.73,1.13,1.92,1.61,3.07c-0.28,0.33-0.57,0.65-0.86,0.97c0.1-1.01-0.67-1.9-1.73-3.13
				c0.09,0.79,1.05,2.09,1.52,3.35c-0.23,0.26-0.47,0.51-0.71,0.76c0.11-1.1-0.72-2.07-1.87-3.4c0.1,0.85,1.14,2.27,1.65,3.63
				c-0.06,0.07-0.13,0.13-0.19,0.2c-0.33,0.34-0.66,0.67-1,0.99c0.17-1.13-0.66-2.3-1.79-3.88c0.03,0.93,1.05,2.62,1.49,4.17
				c-0.38,0.36-0.77,0.72-1.16,1.06c0.34-1.3-0.59-2.61-1.89-4.44c0.03,1.03,1.19,2.94,1.65,4.65c-0.11,0.1-0.23,0.2-0.34,0.3
				c-0.36,0.31-0.73,0.61-1.1,0.9c0.43-1.38-0.5-2.87-1.79-4.92c-0.03,1.12,1.11,3.26,1.5,5.15c-0.41,0.32-0.83,0.63-1.26,0.93
				c0.31-0.87,0.11-1.78-0.38-2.82c0.12,1.19,0.21,2.35,0.29,3.49c0.05-0.03,0.09-0.07,0.14-0.1c2.05,0.51,4.38,1.91,5.62,1.94
				c-2.16-1.52-3.72-2.61-5.25-2.21c0.44-0.33,0.87-0.66,1.29-1.01c1.89,0.47,4.02,1.76,5.16,1.79c-2.01-1.41-3.45-2.42-4.87-2.03
				c0.32-0.26,0.63-0.53,0.94-0.81c0.17-0.16,0.35-0.31,0.52-0.47c1.71,0.53,3.62,1.83,4.66,1.92c-1.82-1.45-3.12-2.46-4.48-2.08
				c0.4-0.37,0.79-0.75,1.17-1.14c1.57,0.49,3.32,1.69,4.28,1.77c-1.68-1.33-2.87-2.27-4.12-1.92c0.33-0.33,0.66-0.67,0.98-1.01
				c0.08-0.08,0.15-0.17,0.23-0.25c1.4,0.54,2.87,1.77,3.76,1.92c-1.42-1.36-2.41-2.3-3.7-1.98c0.31-0.33,0.61-0.67,0.91-1.01
				c1.29,0.5,2.64,1.63,3.46,1.77c-1.3-1.25-2.21-2.12-3.4-1.83c0.32-0.36,0.63-0.73,0.93-1.1
				C148.34,183.24,149.49,184.32,150.22,184.49z"/>
			<path class="st19" d="M167.63,183.76c-0.72,0.32-1.69,1.62-2.76,2.43c-0.31-0.15-0.62-0.3-0.93-0.46
				c1.09-0.22,1.77-1.3,2.71-2.79c-0.78,0.35-1.84,1.76-2.99,2.64c-0.08-0.04-0.16-0.08-0.24-0.12c-0.42-0.22-0.83-0.44-1.24-0.67
				c1.13-0.17,2.01-1.3,3.19-2.84c-0.88,0.3-2.2,1.77-3.55,2.64c-0.46-0.26-0.91-0.52-1.36-0.8c1.34-0.06,2.33-1.33,3.7-3.11
				c-0.98,0.33-2.46,2-3.97,2.94c-0.13-0.08-0.26-0.16-0.39-0.24c-0.4-0.26-0.8-0.52-1.19-0.79c1.45,0.01,2.6-1.31,4.19-3.15
				c-1.08,0.3-2.8,2.01-4.49,2.94c-0.43-0.3-0.85-0.61-1.26-0.93c1.63,0.08,2.89-1.37,4.66-3.41c-1.18,0.33-3.06,2.21-4.91,3.21
				c-0.12-0.1-0.25-0.2-0.37-0.3l0,0c0,0,0,0,0,0c-0.11-0.09-0.27-0.07-0.36,0.04c-0.09,0.11-0.07,0.27,0.04,0.36
				c0.14,0.11,0.28,0.21,0.41,0.31c0.12,2.11-0.55,4.75-0.22,5.94c0.82-2.52,1.41-4.32,0.58-5.67c0.44,0.32,0.89,0.63,1.34,0.94
				c0.1,1.94-0.51,4.36-0.2,5.46c0.76-2.33,1.3-4,0.52-5.25c0.35,0.23,0.69,0.45,1.04,0.66c0.2,0.12,0.4,0.24,0.6,0.36
				c0,1.79-0.7,3.99-0.48,5.02c0.85-2.17,1.45-3.7,0.68-4.9c0.47,0.27,0.95,0.54,1.43,0.79c-0.01,1.65-0.64,3.67-0.44,4.61
				c0.78-1.99,1.33-3.4,0.63-4.51c0.41,0.22,0.83,0.43,1.25,0.64c0.1,0.05,0.21,0.1,0.31,0.15c-0.11,1.5-0.86,3.26-0.74,4.16
				c0.89-1.75,1.5-2.97,0.82-4.12c0.41,0.2,0.82,0.39,1.23,0.57c-0.11,1.38-0.79,3-0.68,3.82c0.82-1.61,1.38-2.73,0.76-3.79
				c0.44,0.2,0.88,0.39,1.32,0.57c-0.18,1.24-0.88,2.66-0.82,3.41c0.82-1.4,1.4-2.39,0.92-3.37c0.24,0.1,0.49,0.2,0.73,0.3
				c0.14,0.06,0.29,0.11,0.43,0.16c-0.16,1.15-0.81,2.45-0.76,3.14c0.76-1.3,1.29-2.2,0.85-3.11c0.39,0.15,0.78,0.29,1.18,0.43
				c-0.09,1.02-0.6,2.17-0.53,2.8c0.62-1.14,1.05-1.93,0.58-2.78c0.07,0.02,0.15,0.05,0.22,0.08c0.29,0.1,0.59,0.19,0.88,0.28
				c-0.09,0.94-0.55,1.98-0.48,2.55c0.57-1.03,0.96-1.76,0.56-2.52c0.35,0.1,0.71,0.19,1.07,0.26c0.04,0.01,0.09-0.02,0.1-0.06
				c0.01-0.04-0.02-0.09-0.06-0.1l0,0c-0.33-0.07-0.66-0.16-0.99-0.26c0.7-0.16,1.09-0.83,1.63-1.74c-0.51,0.23-1.13,1.11-1.86,1.67
				c-0.26-0.08-0.51-0.17-0.77-0.26c-0.06-0.02-0.12-0.04-0.18-0.07c0.83-0.12,1.27-0.87,1.88-1.91c-0.56,0.25-1.26,1.24-2.06,1.84
				c-0.36-0.13-0.71-0.27-1.07-0.41c0.94-0.13,1.44-1.04,2.14-2.32c-0.61,0.31-1.39,1.52-2.29,2.26c-0.12-0.05-0.25-0.1-0.37-0.15
				c-0.23-0.1-0.46-0.2-0.69-0.3c1-0.16,1.54-1.13,2.29-2.51c-0.66,0.34-1.5,1.64-2.46,2.43c-0.4-0.17-0.79-0.35-1.18-0.54
				C166.14,186.12,166.77,185.12,167.63,183.76z"/>
			<path class="st19" d="M161.86,197.09c0.89,0.3,1.79,0.99,2.37,1.06c-0.87-0.79-1.49-1.34-2.33-1.12c0.18-0.32,0.35-0.65,0.5-0.99
				c0.02-0.04,0-0.09-0.04-0.11c-0.04-0.02-0.09,0-0.11,0.04l0,0c-0.14,0.31-0.31,0.61-0.48,0.9c0.01-0.72-0.55-1.26-1.32-1.99
				c0.1,0.55,0.82,1.36,1.19,2.19c-0.14,0.23-0.29,0.46-0.43,0.69c-0.03,0.05-0.07,0.11-0.11,0.16c0.07-0.84-0.55-1.44-1.43-2.27
				c0.11,0.6,0.92,1.51,1.32,2.43c-0.21,0.32-0.43,0.63-0.65,0.94c0.09-0.95-0.68-1.64-1.76-2.62c0.16,0.67,1.16,1.71,1.67,2.75
				c-0.08,0.11-0.15,0.22-0.23,0.32c-0.15,0.2-0.3,0.4-0.45,0.6c0.08-1.01-0.75-1.76-1.91-2.81c0.18,0.72,1.25,1.84,1.8,2.96
				c-0.26,0.34-0.53,0.69-0.8,1.02c0.03-1.02-0.79-1.86-1.92-3.01c0.14,0.78,1.18,2.02,1.73,3.25c-0.22,0.27-0.44,0.54-0.66,0.8
				c0.04-1.11-0.85-2.02-2.08-3.28c0.16,0.84,1.28,2.19,1.88,3.52c-0.06,0.07-0.12,0.14-0.18,0.21c-0.31,0.36-0.62,0.71-0.94,1.06
				c0.1-1.14-0.8-2.25-2.03-3.76c0.09,0.92,1.21,2.55,1.75,4.07c-0.36,0.39-0.72,0.76-1.09,1.14c0.26-1.32-0.75-2.57-2.17-4.32
				c0.1,1.03,1.38,2.86,1.94,4.54c-0.11,0.11-0.21,0.22-0.32,0.32c-0.34,0.33-0.69,0.65-1.04,0.97c0.34-1.41-0.68-2.83-2.1-4.8
				c0.04,1.12,1.31,3.19,1.82,5.04c-0.39,0.35-0.79,0.68-1.2,1.01c0.45-1.57-0.66-3.13-2.24-5.32c0.05,1.22,1.44,3.49,1.99,5.52
				c-0.12,0.1-0.25,0.2-0.37,0.29l0,0c0,0,0,0,0,0c-0.11,0.09-0.13,0.25-0.04,0.36c0.09,0.11,0.25,0.13,0.36,0.04
				c0.14-0.11,0.27-0.22,0.4-0.33c2.08,0.38,4.49,1.63,5.73,1.58c-2.26-1.38-3.88-2.37-5.38-1.87c0.42-0.35,0.82-0.72,1.22-1.09
				c1.91,0.35,4.12,1.5,5.26,1.46c-2.09-1.28-3.6-2.19-4.99-1.71c0.3-0.28,0.59-0.57,0.88-0.86c0.16-0.17,0.33-0.33,0.49-0.5
				c1.74,0.42,3.72,1.6,4.78,1.62c-1.91-1.33-3.27-2.26-4.61-1.8c0.37-0.4,0.74-0.8,1.1-1.21c1.6,0.39,3.42,1.47,4.38,1.49
				c-1.76-1.22-3-2.08-4.24-1.66c0.31-0.35,0.61-0.71,0.91-1.07c0.07-0.09,0.14-0.18,0.21-0.27c1.43,0.46,2.97,1.59,3.87,1.68
				c-1.5-1.27-2.55-2.15-3.82-1.75c0.29-0.35,0.57-0.71,0.84-1.06c1.32,0.42,2.73,1.46,3.56,1.55c-1.38-1.17-2.34-1.97-3.51-1.61
				c0.29-0.38,0.58-0.77,0.86-1.16c1.17,0.46,2.38,1.47,3.13,1.59c-1.18-1.13-2-1.91-3.07-1.67c0.15-0.21,0.31-0.43,0.46-0.64
				c0.09-0.13,0.17-0.25,0.26-0.38c1.08,0.42,2.2,1.35,2.88,1.46c-1.09-1.04-1.85-1.76-2.83-1.54c0.24-0.35,0.47-0.7,0.69-1.05
				c0.98,0.32,1.97,1.09,2.6,1.16c-0.96-0.87-1.64-1.47-2.57-1.21c0.04-0.07,0.08-0.13,0.12-0.2
				C161.55,197.62,161.7,197.36,161.86,197.09z"/>
			<path class="st19" d="M167.92,208.25c0.2-0.27,0.43-0.53,0.66-0.78c-0.16,0.7,0.28,1.34,0.87,2.22c0.01-0.55-0.51-1.5-0.71-2.4
				c0.19-0.2,0.38-0.39,0.57-0.58c0.04-0.05,0.09-0.09,0.14-0.13c-0.25,0.81,0.24,1.52,0.92,2.52c0.02-0.61-0.58-1.67-0.78-2.65
				c0.27-0.27,0.55-0.53,0.83-0.79c-0.29,0.91,0.32,1.75,1.17,2.93c-0.02-0.69-0.78-1.91-1.06-3.03c0.1-0.09,0.19-0.18,0.29-0.27
				c0.19-0.17,0.38-0.33,0.57-0.5c-0.29,0.98,0.36,1.88,1.28,3.15c-0.02-0.74-0.83-2.06-1.14-3.27c0.33-0.28,0.66-0.56,0.99-0.83
				c-0.25,0.99,0.38,1.98,1.25,3.35c0.02-0.79-0.73-2.22-1.01-3.54c0.27-0.22,0.54-0.43,0.81-0.65c-0.27,1.08,0.41,2.16,1.35,3.64
				c0.02-0.86-0.79-2.41-1.1-3.84c0.07-0.06,0.14-0.11,0.22-0.17c0.37-0.28,0.75-0.56,1.14-0.84c-0.33,1.09,0.31,2.37,1.19,4.1
				c0.11-0.92-0.65-2.75-0.86-4.34c0.43-0.3,0.86-0.6,1.3-0.88c-0.53,1.24,0.2,2.67,1.22,4.67c0.12-1.02-0.75-3.08-0.95-4.85
				c0.13-0.08,0.26-0.17,0.38-0.25c0.4-0.25,0.81-0.49,1.22-0.73c-0.63,1.31,0.07,2.91,1.04,5.13c0.19-1.1-0.62-3.39-0.73-5.31
				c0.46-0.26,0.92-0.5,1.38-0.74c-0.77,1.44-0.01,3.2,1.08,5.67c0.21-1.21-0.68-3.72-0.79-5.81c0.14-0.07,0.28-0.14,0.43-0.21l0,0
				c0,0,0,0,0,0c0.13-0.06,0.18-0.22,0.12-0.35c-0.06-0.13-0.22-0.18-0.35-0.12c-0.16,0.08-0.31,0.16-0.46,0.24
				c-1.96-0.8-4.05-2.54-5.27-2.75c1.92,1.82,3.3,3.13,4.87,2.96c-0.48,0.26-0.95,0.53-1.42,0.81c-1.8-0.74-3.72-2.33-4.84-2.53
				c1.78,1.69,3.06,2.9,4.52,2.72c-0.35,0.21-0.7,0.43-1.05,0.66c-0.2,0.13-0.39,0.26-0.58,0.39c-1.62-0.77-3.31-2.35-4.33-2.59
				c1.59,1.7,2.72,2.9,4.13,2.72c-0.45,0.31-0.89,0.63-1.33,0.95c-1.49-0.71-3.03-2.16-3.97-2.38c1.46,1.56,2.5,2.66,3.8,2.51
				c-0.37,0.28-0.75,0.57-1.11,0.86c-0.09,0.07-0.18,0.14-0.27,0.21c-1.31-0.75-2.58-2.17-3.43-2.46c1.2,1.56,2.04,2.63,3.37,2.51
				c-0.35,0.28-0.7,0.57-1.05,0.86c-1.2-0.69-2.37-2-3.16-2.26c1.1,1.43,1.88,2.42,3.09,2.31c-0.37,0.31-0.73,0.63-1.09,0.95
				c-1.05-0.7-2.02-1.93-2.72-2.21c0.91,1.35,1.56,2.29,2.65,2.28c-0.2,0.18-0.39,0.35-0.58,0.53c-0.11,0.1-0.22,0.21-0.33,0.32
				c-0.96-0.64-1.87-1.78-2.51-2.04c0.84,1.24,1.44,2.11,2.44,2.1c-0.3,0.29-0.6,0.58-0.89,0.88c-0.89-0.52-1.7-1.48-2.3-1.68
				c0.76,1.05,1.29,1.78,2.26,1.72c-0.05,0.06-0.11,0.11-0.16,0.16c-0.21,0.22-0.42,0.45-0.63,0.68c-0.81-0.48-1.55-1.35-2.09-1.53
				c0.69,0.96,1.17,1.62,2.04,1.59c-0.24,0.27-0.48,0.56-0.7,0.86c-0.03,0.04-0.02,0.09,0.02,0.11
				C167.84,208.3,167.9,208.29,167.92,208.25L167.92,208.25z"/>
			<path class="st19" d="M156.2,222.5c0.4-0.37,0.79-0.75,1.17-1.14c1.57,0.49,3.32,1.69,4.28,1.77c-1.68-1.33-2.87-2.27-4.13-1.92
				c0.33-0.33,0.66-0.67,0.98-1.01c0.08-0.08,0.15-0.17,0.23-0.25c1.4,0.55,2.87,1.77,3.76,1.92c-1.42-1.36-2.41-2.3-3.7-1.98
				c0.31-0.33,0.61-0.67,0.91-1.01c1.29,0.5,2.64,1.63,3.46,1.77c-1.3-1.25-2.21-2.12-3.4-1.83c0.32-0.36,0.63-0.73,0.93-1.1
				c1.14,0.53,2.29,1.61,3.02,1.78c-1.1-1.2-1.88-2.03-2.95-1.86c0.17-0.2,0.33-0.41,0.5-0.61c0.09-0.12,0.19-0.24,0.28-0.36
				c1.05,0.49,2.11,1.49,2.78,1.64c-1.02-1.11-1.73-1.88-2.72-1.72c0.26-0.33,0.51-0.66,0.75-1c0.95,0.38,1.9,1.21,2.52,1.32
				c-0.91-0.93-1.54-1.57-2.48-1.37c0.04-0.06,0.09-0.12,0.14-0.19c0.18-0.25,0.35-0.5,0.52-0.76c0.87,0.36,1.73,1.11,2.29,1.2
				c-0.82-0.84-1.4-1.43-2.25-1.27c0.2-0.31,0.39-0.62,0.56-0.95c0.02-0.04,0.01-0.09-0.03-0.11c-0.04-0.02-0.09-0.01-0.11,0.03l0,0
				c-0.16,0.3-0.35,0.59-0.54,0.87c0.05-0.72-0.47-1.29-1.19-2.07c0.07,0.55,0.73,1.41,1.05,2.27c-0.15,0.22-0.31,0.44-0.47,0.66
				c-0.04,0.05-0.08,0.1-0.12,0.15c0.12-0.83-0.46-1.47-1.28-2.36c0.07,0.61,0.82,1.56,1.16,2.51c-0.23,0.3-0.47,0.6-0.71,0.9
				c0.15-0.94-0.57-1.68-1.59-2.72c0.12,0.68,1.05,1.78,1.49,2.85c-0.08,0.1-0.17,0.21-0.25,0.31c-0.16,0.19-0.32,0.38-0.49,0.57
				c0.14-1.01-0.63-1.8-1.73-2.92c0.13,0.73,1.13,1.92,1.61,3.07c-0.28,0.33-0.57,0.65-0.86,0.97c0.1-1.01-0.67-1.9-1.73-3.13
				c0.09,0.78,1.05,2.09,1.52,3.35c-0.23,0.26-0.47,0.51-0.71,0.76c0.11-1.1-0.72-2.07-1.87-3.4c0.1,0.85,1.14,2.27,1.65,3.63
				c-0.06,0.07-0.13,0.13-0.19,0.2c-0.33,0.34-0.66,0.67-1,0.99c0.17-1.13-0.66-2.3-1.79-3.88c0.03,0.93,1.05,2.62,1.49,4.17
				c-0.38,0.36-0.77,0.72-1.16,1.06c0.34-1.3-0.59-2.61-1.89-4.44c0.03,1.03,1.19,2.94,1.65,4.65c-0.11,0.1-0.23,0.2-0.34,0.3
				c-0.36,0.31-0.73,0.61-1.1,0.9c0.43-1.38-0.5-2.87-1.79-4.92c-0.03,1.11,1.08,3.21,1.48,5.08c0.26,0.02,0.51,0.04,0.77,0.05
				c0.31-0.26,0.62-0.52,0.92-0.79c0.18-0.15,0.35-0.31,0.52-0.47c1.18,0.36,2.44,1.09,3.46,1.54c0.25,0.01,0.51,0.02,0.76,0.03
				C158.65,222.98,157.45,222.15,156.2,222.5z"/>
			<path class="st19" d="M150.67,219.42c-0.03,0.97,0.75,2.64,1.28,4.32c0.25,0.02,0.51,0.04,0.76,0.06
				C152.62,222.55,151.77,221.18,150.67,219.42z"/>
			<path class="st19" d="M154.64,223.93c0.5,0.03,1.01,0.06,1.51,0.09C155.62,223.85,155.13,223.81,154.64,223.93z"/>
			<path class="st19" d="M183.74,221.83c0.03-0.06,0.06-0.12,0.08-0.18c-0.12-0.04-0.25-0.08-0.37-0.12
				c-0.06-0.02-0.12-0.04-0.18-0.07c0.3-0.04,0.54-0.17,0.77-0.36c0.09-0.26,0.18-0.54,0.26-0.85c-0.37,0.37-0.77,0.81-1.2,1.14
				c-0.36-0.13-0.71-0.27-1.07-0.41c0.94-0.13,1.44-1.04,2.14-2.32c-0.61,0.31-1.39,1.52-2.29,2.26c-0.12-0.05-0.25-0.1-0.37-0.15
				c-0.23-0.1-0.46-0.2-0.69-0.3c1-0.16,1.54-1.13,2.29-2.51c-0.66,0.34-1.5,1.64-2.46,2.43c-0.4-0.17-0.79-0.35-1.18-0.54
				c1-0.2,1.63-1.2,2.49-2.56c-0.72,0.32-1.69,1.62-2.76,2.43c-0.31-0.15-0.62-0.3-0.93-0.46c1.09-0.22,1.77-1.3,2.71-2.79
				c-0.78,0.35-1.84,1.76-2.99,2.64c-0.08-0.04-0.16-0.08-0.24-0.12c-0.42-0.22-0.83-0.44-1.24-0.67c1.13-0.17,2.01-1.3,3.19-2.84
				c-0.88,0.3-2.2,1.77-3.55,2.64c-0.46-0.26-0.91-0.52-1.36-0.8c1.34-0.06,2.33-1.33,3.7-3.11c-0.98,0.33-2.46,2-3.97,2.94
				c-0.13-0.08-0.26-0.16-0.39-0.24c-0.4-0.26-0.8-0.52-1.19-0.79c1.45,0.01,2.6-1.31,4.19-3.15c-1.08,0.3-2.8,2.01-4.49,2.94
				c-0.43-0.3-0.85-0.61-1.26-0.93c1.63,0.08,2.89-1.37,4.66-3.41c-1.18,0.33-3.06,2.21-4.91,3.21c-0.12-0.1-0.25-0.19-0.37-0.3l0,0
				c0,0,0,0,0,0c-0.11-0.09-0.27-0.07-0.36,0.04c-0.09,0.11-0.07,0.27,0.04,0.36c0.14,0.11,0.28,0.21,0.41,0.31
				c0.12,2.11-0.55,4.75-0.22,5.94c0.82-2.51,1.41-4.32,0.58-5.67c0.44,0.32,0.89,0.63,1.34,0.94c0.1,1.94-0.51,4.36-0.2,5.46
				c0.76-2.33,1.3-4,0.52-5.25c0.35,0.23,0.69,0.45,1.04,0.66c0.2,0.12,0.4,0.24,0.6,0.36c0,1.79-0.7,3.99-0.48,5.02
				c0.85-2.17,1.45-3.7,0.68-4.9c0.47,0.27,0.95,0.54,1.43,0.79c-0.01,1.65-0.64,3.67-0.44,4.61c0.78-1.99,1.33-3.4,0.63-4.51
				c0.41,0.22,0.83,0.43,1.25,0.64c0.1,0.05,0.21,0.1,0.31,0.15c-0.11,1.5-0.86,3.26-0.74,4.16c0.89-1.76,1.5-2.98,0.82-4.12
				c0.41,0.2,0.82,0.39,1.23,0.57c-0.1,1.34-0.74,2.89-0.68,3.74c0.02,0,0.03,0,0.05-0.01c0.79-1.56,1.32-2.66,0.71-3.7
				c0.44,0.2,0.88,0.39,1.32,0.57c-0.15,1.01-0.63,2.13-0.78,2.92c0.09-0.02,0.18-0.03,0.27-0.05c0.64-1.12,1.02-1.98,0.6-2.82
				c0.24,0.1,0.49,0.2,0.73,0.3c0.14,0.06,0.29,0.11,0.43,0.16c-0.1,0.69-0.37,1.44-0.56,2.08c0.16-0.04,0.32-0.09,0.46-0.13
				c0.34-0.71,0.48-1.32,0.19-1.92c0.39,0.15,0.78,0.29,1.18,0.43c-0.03,0.34-0.1,0.68-0.19,1.02c0.16-0.08,0.31-0.17,0.44-0.26
				c0-0.25-0.06-0.49-0.19-0.74c0.07,0.02,0.15,0.05,0.22,0.08C183.5,221.76,183.62,221.79,183.74,221.83z"/>
			<path class="st19" d="M145.26,200.96L145.26,200.96C145.26,200.96,145.27,200.96,145.26,200.96c0.14-0.04,0.22-0.18,0.19-0.32
				c-0.04-0.14-0.18-0.22-0.32-0.18c-0.17,0.05-0.33,0.1-0.5,0.15c-1.77-1.15-3.5-3.25-4.66-3.69c1.54,2.15,2.66,3.69,4.23,3.81
				c-0.52,0.16-1.04,0.34-1.55,0.53c-1.2-0.79-2.38-2.04-3.35-2.8c0,0.23,0,0.45,0,0.68c1,1.3,1.87,2.17,3,2.25
				c-0.39,0.15-0.77,0.3-1.15,0.45c-0.22,0.09-0.43,0.18-0.64,0.27c-0.41-0.3-0.82-0.67-1.21-1.06c0,0.28-0.01,0.56-0.01,0.83
				c0.31,0.18,0.64,0.29,1,0.32c-0.34,0.15-0.68,0.31-1.02,0.47c0,0.14-0.01,0.28-0.01,0.42c0.45-0.2,0.89-0.4,1.34-0.58
				c-0.75,1.12-0.3,2.66,0.32,4.82c0.31-0.98-0.16-3.17-0.03-4.94c0.14-0.06,0.28-0.12,0.42-0.17c0.44-0.17,0.89-0.33,1.34-0.49
				c-0.86,1.17-0.47,2.87,0.07,5.24c0.4-1.05,0.03-3.44,0.28-5.36c0.5-0.17,1-0.32,1.5-0.47c-1.03,1.27-0.6,3.14,0,5.77
				c0.43-1.15,0.02-3.78,0.31-5.86C144.95,201.04,145.11,201,145.26,200.96z"/>
			<path class="st19" d="M139.08,207.23c0.03,0.12,0.07,0.23,0.1,0.36c0.18-0.56,0.08-1.55,0.01-2.61
				C139.15,205.74,139.12,206.5,139.08,207.23z"/>
			<path class="st19" d="M142.62,221.86c-0.12-0.2-0.25-0.4-0.38-0.59c0.81-1.6,2.43-3.25,2.7-4.26c-1.74,1.55-2.96,2.64-2.83,4.06
				c-0.3-0.46-0.6-0.91-0.92-1.35c0.75-1.47,2.23-2.98,2.48-3.91c-1.6,1.42-2.73,2.43-2.61,3.73c-0.27-0.38-0.55-0.76-0.83-1.13
				c-0.07-0.09-0.14-0.18-0.21-0.27c0.78-1.29,2.24-2.52,2.54-3.37c-1.59,1.16-2.68,1.97-2.59,3.31c-0.27-0.36-0.55-0.72-0.84-1.07
				c0.72-1.18,2.06-2.32,2.34-3.1c-1.46,1.07-2.47,1.81-2.39,3.03c-0.2-0.25-0.41-0.5-0.62-0.74c-0.01,0.14-0.02,0.28-0.03,0.42
				c0.12,0.15,0.24,0.3,0.36,0.45c-0.13-0.03-0.25-0.05-0.38-0.06c-0.01,0.15-0.01,0.29-0.02,0.44c0.2-0.05,0.39-0.1,0.59-0.14
				c0.21,0.27,0.42,0.55,0.62,0.83c-0.4-0.11-0.81-0.09-1.24,0.03c-0.01,0.21-0.02,0.42-0.03,0.62c0.48-0.15,0.98-0.3,1.46-0.39
				c0.05,0.07,0.11,0.15,0.16,0.22c0.27,0.38,0.54,0.77,0.81,1.16c-0.7-0.23-1.49-0.06-2.44,0.32c0,0.18,0,0.38,0,0.56
				c0.84-0.19,1.79-0.45,2.67-0.54c0.29,0.44,0.57,0.88,0.85,1.32c-0.95-0.44-2.05-0.11-3.45,0.52c0.01,0.13,0.01,0.28,0.02,0.4
				c0.08,0.01,0.15,0.02,0.23,0.03c1.02-0.22,2.25-0.58,3.37-0.67c0.08,0.13,0.16,0.26,0.24,0.39c0.15,0.26,0.29,0.52,0.44,0.77
				c0.19,0.02,0.37,0.04,0.56,0.06C143.05,222.56,142.84,222.21,142.62,221.86z"/>
			<path class="st19" d="M138.71,212.78c-0.01,0.16-0.02,0.31-0.03,0.47c0.32-0.33,0.59-0.64,0.7-0.9
				C139.14,212.5,138.92,212.64,138.71,212.78z"/>
			<path class="st19" d="M144.59,223.06c0.3,0.03,0.59,0.06,0.89,0.09c0.8-1.27,1.64-2.45,1.81-3.26
				C146.08,221.1,145.11,222.09,144.59,223.06z"/>
			<path class="st19" d="M143.58,222.96c0.83-1.69,2.29-3.42,2.51-4.48c-1.73,1.73-2.97,2.98-2.84,4.44
				C143.36,222.93,143.47,222.94,143.58,222.96z"/>
			<path class="st19" d="M138.58,214.57c-0.02,0.27-0.04,0.53-0.05,0.79c0.72-0.85,1.67-1.62,1.92-2.21
				C139.65,213.66,139,214.09,138.58,214.57z"/>
		</g>
		<path class="st18" d="M208.04,190.12l4.42-4.69l6.12,8.62c0,0-5.17,3.67-10.12,3.52l-0.57-1.27
			C206.97,194.25,207.03,191.98,208.04,190.12z"/>
		<path class="st18" d="M219.55,185.89l1.73,3.26c0.79,1.49,0.23,3.33-1.25,4.13l-1.45,0.78l-6.12-8.62l3.5-1.05
			C217.36,183.97,218.86,184.6,219.55,185.89z"/>
		<path class="st18" d="M184.68,173.29l0.37,1.91l0.42,2.02c0.3,1.35,0.6,2.7,0.93,4.04c0.65,2.68,1.42,5.31,2.26,7.85
			c0.87,2.52,1.84,4.95,2.96,7.11c1.13,2.13,2.43,4,3.67,5.1l-2.13-1.05c-0.62-0.09-0.73,0.11-0.41,0.09c0.31,0,0.89-0.16,1.52-0.43
			c1.28-0.56,2.8-1.45,4.26-2.49c1.49-1.02,2.99-2.19,4.48-3.39c1.49-1.19,3.01-2.5,4.47-3.69l0.15-0.13
			c1.5-1.23,3.72-1.01,4.95,0.49c0.91,1.12,1.03,2.63,0.41,3.84c-1.02,2-2.12,3.75-3.35,5.55c-1.23,1.77-2.57,3.49-4.07,5.16
			c-1.54,1.65-3.19,3.3-5.39,4.78c-1.11,0.74-2.36,1.46-3.99,2.04c-0.82,0.28-1.74,0.52-2.82,0.62c-1.07,0.1-2.29,0.06-3.56-0.26
			c-0.7-0.17-1.33-0.47-1.88-0.87l-0.24-0.18c-3.48-2.52-5.76-5.53-7.61-8.49c-0.91-1.49-1.73-2.99-2.47-4.49
			c-0.71-1.51-1.36-3.02-1.96-4.54c-1.19-3.03-2.13-6.08-2.93-9.15c-0.39-1.54-0.76-3.07-1.07-4.62c-0.16-0.77-0.31-1.55-0.44-2.34
			c-0.14-0.81-0.25-1.53-0.38-2.47c-0.53-3.83,2.15-7.36,5.98-7.89c3.69-0.51,7.11,1.96,7.82,5.58L184.68,173.29z"/>
		<path class="st19" d="M175.09,162.79c5.81,0.6,10.47,4.46,13.72,16.75c-2.5,3.46-18.25,11.05-18.25,11.05
			S161.79,161.42,175.09,162.79z"/>
	</g>
</g>
</svg>
