<svg width="54" height="54" viewBox="0 0 54 54" fill="none" xmlns="http://www.w3.org/2000/svg">
<g filter="url(#filter0_d_108_25)">
<rect x="6" y="6" width="42" height="42" rx="10.08" fill="white"/>
</g>
<path d="M32.1054 15.7184C32.1054 15.4291 32.2203 15.1517 32.4248 14.9471C32.6294 14.7426 32.9068 14.6277 33.1961 14.6277H36.8317C37.1209 14.6277 37.3984 14.7426 37.6029 14.9471C37.8074 15.1517 37.9223 15.4291 37.9223 15.7184V19.354C37.9223 19.6432 37.8074 19.9207 37.6029 20.1252C37.3984 20.3297 37.1209 20.4446 36.8317 20.4446C36.5424 20.4446 36.265 20.3297 36.0604 20.1252C35.8559 19.9207 35.741 19.6432 35.741 19.354V18.3505L29.2405 24.851C29.036 25.0552 28.7588 25.17 28.4698 25.17C28.1808 25.17 27.9035 25.0552 27.699 24.851L24.1071 21.259L17.9702 27.3959C17.8703 27.5031 17.7499 27.589 17.6161 27.6486C17.4823 27.7082 17.3379 27.7403 17.1915 27.7429C17.045 27.7455 16.8996 27.7185 16.7637 27.6637C16.6279 27.6088 16.5046 27.5272 16.401 27.4236C16.2974 27.32 16.2158 27.1967 16.1609 27.0609C16.1061 26.925 16.0791 26.7796 16.0817 26.6331C16.0843 26.4867 16.1164 26.3423 16.176 26.2085C16.2356 26.0747 16.3215 25.9543 16.4287 25.8544L23.3363 18.9468C23.5408 18.7425 23.818 18.6278 24.1071 18.6278C24.3961 18.6278 24.6733 18.7425 24.8778 18.9468L28.4698 22.5388L34.1995 16.809H33.1961C32.9068 16.809 32.6294 16.6941 32.4248 16.4896C32.2203 16.2851 32.1054 16.0076 32.1054 15.7184ZM17.1994 32.0786C17.4887 32.0786 17.7661 32.1935 17.9707 32.398C18.1752 32.6026 18.2901 32.88 18.2901 33.1692V36.8048C18.2901 37.0941 18.1752 37.3715 17.9707 37.5761C17.7661 37.7806 17.4887 37.8955 17.1994 37.8955C16.9102 37.8955 16.6327 37.7806 16.4282 37.5761C16.2237 37.3715 16.1087 37.0941 16.1087 36.8048V33.1692C16.1087 32.88 16.2237 32.6026 16.4282 32.398C16.6327 32.1935 16.9102 32.0786 17.1994 32.0786ZM24.1071 28.8065C24.1071 28.5173 23.9922 28.2398 23.7876 28.0353C23.5831 27.8308 23.3057 27.7158 23.0164 27.7158C22.7271 27.7158 22.4497 27.8308 22.2452 28.0353C22.0406 28.2398 21.9257 28.5173 21.9257 28.8065V36.8048C21.9257 37.0941 22.0406 37.3715 22.2452 37.5761C22.4497 37.7806 22.7271 37.8955 23.0164 37.8955C23.3057 37.8955 23.5831 37.7806 23.7876 37.5761C23.9922 37.3715 24.1071 37.0941 24.1071 36.8048V28.8065ZM28.8333 30.6243C29.1226 30.6243 29.4 30.7392 29.6046 30.9438C29.8091 31.1483 29.924 31.4257 29.924 31.715V36.8048C29.924 37.0941 29.8091 37.3715 29.6046 37.5761C29.4 37.7806 29.1226 37.8955 28.8333 37.8955C28.5441 37.8955 28.2667 37.7806 28.0621 37.5761C27.8576 37.3715 27.7427 37.0941 27.7427 36.8048V31.715C27.7427 31.4257 27.8576 31.1483 28.0621 30.9438C28.2667 30.7392 28.5441 30.6243 28.8333 30.6243ZM35.741 25.898C35.741 25.6088 35.6261 25.3314 35.4215 25.1268C35.217 24.9223 34.9396 24.8074 34.6503 24.8074C34.361 24.8074 34.0836 24.9223 33.8791 25.1268C33.6745 25.3314 33.5596 25.6088 33.5596 25.898V36.8048C33.5596 37.0941 33.6745 37.3715 33.8791 37.5761C34.0836 37.7806 34.361 37.8955 34.6503 37.8955C34.9396 37.8955 35.217 37.7806 35.4215 37.5761C35.6261 37.3715 35.741 37.0941 35.741 36.8048V25.898Z" fill="#20AAF8"/>
<defs>
<filter id="filter0_d_108_25" x="0" y="0" width="54" height="54" filterUnits="userSpaceOnUse" color-interpolation-filters="sRGB">
<feFlood flood-opacity="0" result="BackgroundImageFix"/>
<feColorMatrix in="SourceAlpha" type="matrix" values="0 0 0 0 0 0 0 0 0 0 0 0 0 0 0 0 0 0 127 0" result="hardAlpha"/>
<feOffset/>
<feGaussianBlur stdDeviation="3"/>
<feComposite in2="hardAlpha" operator="out"/>
<feColorMatrix type="matrix" values="0 0 0 0 0 0 0 0 0 0 0 0 0 0 0 0 0 0 0.04 0"/>
<feBlend mode="normal" in2="BackgroundImageFix" result="effect1_dropShadow_108_25"/>
<feBlend mode="normal" in="SourceGraphic" in2="effect1_dropShadow_108_25" result="shape"/>
</filter>
</defs>
</svg>
