<svg width="171" height="127" viewBox="0 0 171 127" fill="none" xmlns="http://www.w3.org/2000/svg">
<path d="M152.501 8.4892V105.011C152.493 107.215 151.614 109.326 150.056 110.885C148.497 112.443 146.386 113.322 144.182 113.33H8.81467C6.612 113.322 4.50261 112.44 2.9501 110.878C1.39758 109.315 0.528983 107.2 0.535195 104.997V8.47584C0.528663 6.35935 1.34549 4.32327 2.81297 2.79811C3.57844 1.96858 4.50834 1.30763 5.54339 0.857381C6.57845 0.407133 7.69596 0.177463 8.82469 0.183012H144.182C145.366 0.171258 146.539 0.42215 147.614 0.917639C148.69 1.41313 149.643 2.1409 150.404 3.0486C151.77 4.52935 152.52 6.47491 152.501 8.4892Z" fill="white"/>
<path d="M162.147 126.79H26.7803C26.1159 126.79 25.4788 126.526 25.0091 126.056C24.5393 125.586 24.2754 124.949 24.2754 124.285C24.2754 123.621 24.5393 122.984 25.0091 122.514C25.4788 122.044 26.1159 121.78 26.7803 121.78H162.147C162.583 121.785 163.015 121.702 163.418 121.537C163.821 121.373 164.188 121.13 164.495 120.822C164.803 120.514 165.047 120.147 165.211 119.744C165.376 119.341 165.458 118.909 165.454 118.474V21.9522C165.454 21.2878 165.718 20.6507 166.188 20.1809C166.657 19.7112 167.294 19.4473 167.959 19.4473C168.623 19.4473 169.26 19.7112 169.73 20.1809C170.2 20.6507 170.464 21.2878 170.464 21.9522V118.474C170.461 120.678 169.584 122.792 168.025 124.351C166.466 125.91 164.352 126.787 162.147 126.79Z" fill="#F1F1F1"/>
<path d="M149.626 11.5917V101.908C149.623 103.972 148.802 105.95 147.343 107.41C145.883 108.869 143.905 109.69 141.841 109.693H11.1625C9.1033 109.686 7.131 108.862 5.67837 107.403C4.22573 105.943 3.4114 103.967 3.41407 101.908V11.5917C3.42979 9.54152 4.25119 7.57979 5.70091 6.13007C7.15063 4.68035 9.11235 3.85895 11.1625 3.84323H141.837C142.945 3.83102 144.041 4.06429 145.048 4.52627C146.054 4.98825 146.946 5.66746 147.659 6.5151C148.935 7.89643 149.638 9.71119 149.626 11.5917Z" fill="#F1F1F1"/>
<path d="M90.5697 21.2308C90.5697 23.288 89.9598 25.299 88.8171 27.0097C87.6744 28.7203 86.0502 30.0538 84.1497 30.8415C82.2493 31.6292 80.158 31.8358 78.1402 31.4352C76.1223 31.0346 74.2686 30.0447 72.8132 28.5908C71.3578 27.1368 70.3662 25.284 69.9636 23.2665C69.5611 21.2491 69.7657 19.1576 70.5516 17.2564C71.3375 15.3552 72.6694 13.7297 74.3789 12.5853C76.0885 11.441 78.0989 10.8291 80.1561 10.8271C82.916 10.828 85.5627 11.9241 87.5151 13.8747C89.4676 15.8252 90.5662 18.4709 90.5697 21.2308ZM99.8612 50.2173V52.7222H60.451V50.2173C60.451 41.6105 69.2883 34.6102 80.1561 34.6102C91.024 34.6102 99.8612 41.6105 99.8612 50.2173ZM137.889 66.0047H20.2627C19.5984 66.0047 18.9612 65.7408 18.4915 65.2711C18.0217 64.8013 17.7578 64.1642 17.7578 63.4998C17.7578 62.8355 18.0217 62.1984 18.4915 61.7286C18.9612 61.2589 19.5984 60.9949 20.2627 60.9949H137.892C138.556 60.9949 139.193 61.2589 139.663 61.7286C140.133 62.1984 140.397 62.8355 140.397 63.4998C140.397 64.1642 140.133 64.8013 139.663 65.2711C139.193 65.7408 138.556 66.0047 137.892 66.0047H137.889ZM131.209 82.243H20.2627C19.5984 82.243 18.9612 81.9791 18.4915 81.5094C18.0217 81.0396 17.7578 80.4025 17.7578 79.7381C17.7578 79.0738 18.0217 78.4367 18.4915 77.9669C18.9612 77.4972 19.5984 77.2333 20.2627 77.2333H131.212C131.877 77.2333 132.514 77.4972 132.984 77.9669C133.453 78.4367 133.717 79.0738 133.717 79.7381C133.717 80.4025 133.453 81.0396 132.984 81.5094C132.514 81.9791 131.877 82.243 131.212 82.243H131.209ZM97.8105 98.4813H20.2627C19.5984 98.4813 18.9612 98.2174 18.4915 97.7477C18.0217 97.2779 17.7578 96.6408 17.7578 95.9765C17.7578 95.3121 18.0217 94.675 18.4915 94.2053C18.9612 93.7355 19.5984 93.4716 20.2627 93.4716H97.8139C98.4782 93.4716 99.1153 93.7355 99.5851 94.2053C100.055 94.675 100.319 95.3121 100.319 95.9765C100.319 96.6408 100.055 97.2779 99.5851 97.7477C99.1153 98.2174 98.4782 98.4813 97.8139 98.4813H97.8105Z" fill="white"/>
</svg>
